<?xml version="1.0" encoding="UTF-8" standalone="no"?>
<!-- Created with Inkscape (http://www.inkscape.org/) -->

<svg
   width="64"
   height="64"
   viewBox="0 0 16.933333 16.933333"
   version="1.1"
   id="svg1"
   sodipodi:docname="logo-ati-min-white.svg"
   inkscape:version="1.3.2 (091e20e, 2023-11-25, custom)"
   xmlns:inkscape="http://www.inkscape.org/namespaces/inkscape"
   xmlns:sodipodi="http://sodipodi.sourceforge.net/DTD/sodipodi-0.dtd"
   xmlns:xlink="http://www.w3.org/1999/xlink"
   xmlns="http://www.w3.org/2000/svg"
   xmlns:svg="http://www.w3.org/2000/svg">
  <sodipodi:namedview
     id="namedview1"
     pagecolor="#ffffff"
     bordercolor="#000000"
     borderopacity="0.25"
     inkscape:showpageshadow="2"
     inkscape:pageopacity="0.0"
     inkscape:pagecheckerboard="0"
     inkscape:deskcolor="#d1d1d1"
     inkscape:document-units="mm"
     inkscape:zoom="14.025589"
     inkscape:cx="31.192986"
     inkscape:cy="55.327444"
     inkscape:window-width="1280"
     inkscape:window-height="730"
     inkscape:window-x="-6"
     inkscape:window-y="-6"
     inkscape:window-maximized="1"
     inkscape:current-layer="layer1" />
  <defs
     id="defs1">
    <filter
       style="color-interpolation-filters:sRGB;"
       inkscape:label="Greyscale"
       id="filter1"
       x="0"
       y="0"
       width="1"
       height="1">
      <feColorMatrix
         values="0.21 1.68196 0.072 0 0 0.21 1.68196 0.072 0 0 0.21 1.68196 0.072 0 0 0 0 0 1 0 "
         id="feColorMatrix1" />
    </filter>
    <linearGradient
       inkscape:collect="always"
       xlink:href="#linearGradient266"
       id="linearGradient267"
       x1="17.575554"
       y1="286.57938"
       x2="20.282784"
       y2="292.55399"
       gradientUnits="userSpaceOnUse" />
    <linearGradient
       id="linearGradient266"
       inkscape:collect="always">
      <stop
         style="stop-color:#000000;stop-opacity:0.41052631;"
         offset="0"
         id="stop266" />
      <stop
         style="stop-color:#ffffff;stop-opacity:1;"
         offset="0.33105281"
         id="stop267" />
    </linearGradient>
  </defs>
  <g
     inkscape:label="Camada 1"
     inkscape:groupmode="layer"
     id="layer1">
    <g
       id="g2"
       style="fill:#ffffff;fill-opacity:1;filter:url(#filter1);stroke-width:0.99840106;stroke-dasharray:none;opacity:1"
       transform="matrix(0.27243561,0,0,0.27243561,1.4641663,-64.660461)"
       inkscape:transform-center-x="-60.088694"
       inkscape:transform-center-y="59.355907">
      <path
         fill="url(#SVGID_1_)"
         d="m 36.558,249.114 c 0.034,-0.049 0.08,-0.046 0.127,-0.027 -0.035,0.044 -0.08,0.041 -0.127,0.027 z"
         id="path11"
         style="fill:#ffffff;fill-opacity:1;stroke-width:0.99840106;stroke-dasharray:none" />
      <path
         fill="url(#SVGID_2_)"
         d="m 20.857,244.334 c -0.065,0.009 -0.103,-0.02 -0.12,-0.081 0.051,0.011 0.1,0.024 0.12,0.081 z"
         id="path22"
         style="fill:#ffffff;fill-opacity:1;stroke-width:0.99840106;stroke-dasharray:none" />
      <path
         fill="url(#SVGID_3_)"
         d="m 9,266.199 c 0.01,-0.051 0.017,-0.106 0.093,-0.069 -0.019,0.038 -0.046,0.066 -0.093,0.069 z"
         id="path33"
         style="fill:#ffffff;fill-opacity:1;stroke-width:0.99840106;stroke-dasharray:none" />
      <path
         fill="url(#SVGID_4_)"
         d="m 13.802,269 c 0.004,-0.055 0.018,-0.101 0.088,-0.097 -0.009,0.051 -0.039,0.082 -0.088,0.097 z"
         id="path44"
         style="fill:#ffffff;fill-opacity:1;stroke-width:0.99840106;stroke-dasharray:none" />
      <path
         fill="url(#SVGID_5_)"
         d="m 22.036,241.573 c -0.077,0.012 -0.084,-0.041 -0.091,-0.096 0.05,0.014 0.081,0.046 0.091,0.096 z"
         id="path55"
         style="fill:#ffffff;fill-opacity:1;stroke-width:0.99840106;stroke-dasharray:none" />
      <path
         fill="url(#SVGID_6_)"
         d="m 17.035,256.062 c 0.025,-0.049 0.064,-0.069 0.119,-0.059 -0.024,0.053 -0.069,0.061 -0.119,0.059 z"
         id="path66"
         style="fill:#ffffff;fill-opacity:1;stroke-width:0.99840106;stroke-dasharray:none" />
      <path
         fill="url(#SVGID_7_)"
         d="m 27.894,244.519 c 0.041,0.009 0.065,0.03 0.056,0.075 -0.04,-0.008 -0.053,-0.038 -0.056,-0.075 z"
         id="path77"
         style="fill:#ffffff;fill-opacity:1;stroke-width:0.99840106;stroke-dasharray:none" />
      <path
         fill="url(#SVGID_8_)"
         d="m 39.708,265.543 c -0.039,-0.012 -0.061,-0.035 -0.055,-0.079 0.042,0.01 0.053,0.042 0.055,0.079 z"
         id="path88"
         style="fill:#ffffff;fill-opacity:1;stroke-width:0.99840106;stroke-dasharray:none" />
      <path
         fill="url(#SVGID_9_)"
         d="m 12.168,267.063 c -0.01,0.039 -0.037,0.056 -0.075,0.059 0.012,-0.035 0.035,-0.058 0.075,-0.059 z"
         id="path99"
         style="fill:#ffffff;fill-opacity:1;stroke-width:0.99840106;stroke-dasharray:none" />
      <path
         fill="url(#SVGID_10_)"
         d="m 11.435,276.297 c -0.003,0.041 -0.029,0.061 -0.066,0.068 0.007,-0.037 0.025,-0.064 0.066,-0.068 z"
         id="path110"
         style="fill:#ffffff;fill-opacity:1;stroke-width:0.99840106;stroke-dasharray:none" />
      <g
         id="g128"
         style="fill:#ffffff;fill-opacity:1;stroke-width:0.99840106;stroke-dasharray:none">
        <radialGradient
           id="SVGID_11_"
           cx="-138.9709"
           cy="1161.7273"
           r="63.393902"
           fx="-78.847"
           fy="1141.6301"
           gradientTransform="translate(181.5,-909.259)"
           gradientUnits="userSpaceOnUse">
          <stop
             offset="0"
             style="stop-color:#8DCCD6"
             id="stop111" />
          <stop
             offset="0.1955"
             style="stop-color:#7DC4D3"
             id="stop112" />
          <stop
             offset="0.5754"
             style="stop-color:#55AFCA"
             id="stop113" />
          <stop
             offset="1"
             style="stop-color:#2395BF"
             id="stop114" />
        </radialGradient>
        <path
           fill="url(#SVGID_11_)"
           d="m 44.575,252.124 c -0.607,-0.035 -1.204,-0.154 -1.804,-0.236 -0.642,-0.087 -1.283,-0.177 -1.924,-0.266 -0.481,-0.067 -0.962,-0.134 -1.442,-0.202 -0.521,-0.073 -1.041,-0.147 -1.562,-0.22 -0.521,-0.073 -1.042,-0.146 -1.563,-0.217 -0.521,-0.072 -1.043,-0.139 -1.564,-0.211 -0.551,-0.075 -1.102,-0.153 -1.653,-0.231 -0.041,-0.006 -0.099,0.014 -0.118,-0.047 0.088,-0.132 0.217,-0.137 0.352,-0.135 0.658,0.013 1.316,0.027 1.973,0.033 0.942,0.009 1.883,0.013 2.825,0.017 0.232,0.001 0.465,-0.008 0.698,-0.012 -0.077,-0.103 -0.166,-0.199 -0.187,-0.335 -0.038,-0.242 0.047,-0.429 0.246,-0.566 -0.143,-0.012 -0.282,0.011 -0.423,0.029 -0.592,0.074 -1.185,0.146 -1.778,0.218 -0.412,0.049 -0.824,0.097 -1.236,0.146 -0.593,0.07 -1.185,0.142 -1.779,0.21 -0.04,0.005 -0.099,0.034 -0.125,-0.044 0.166,-0.166 0.352,-0.279 0.592,-0.333 0.729,-0.164 1.454,-0.352 2.18,-0.532 0.047,-0.012 0.091,-0.04 0.136,-0.06 -0.01,-0.017 -0.017,-0.038 -0.031,-0.05 -0.187,-0.161 -0.196,-0.351 -0.093,-0.559 -0.056,0.019 -0.114,0.034 -0.169,0.056 -0.493,0.194 -0.987,0.387 -1.48,0.583 -0.054,0.021 -0.106,0.044 -0.165,0.04 -0.071,0.047 -0.151,0.086 -0.236,0.125 -0.028,0.013 -0.056,0.025 -0.084,0.038 -0.082,0.091 -0.173,0.177 -0.273,0.258 -0.508,0.407 -1.034,0.793 -1.552,1.188 -0.207,0.158 -0.413,0.316 -0.621,0.471 -0.262,0.195 -0.644,0.082 -0.747,-0.221 -0.013,-0.038 -0.019,-0.078 -0.025,-0.118 -0.11,-0.856 -0.219,-1.712 -0.327,-2.569 -0.003,-0.005 -0.005,-0.011 -0.008,-0.017 -0.025,-0.017 -0.042,-0.041 -0.053,-0.068 -0.014,-0.015 -0.025,-0.033 -0.032,-0.053 -0.068,-0.151 -0.137,-0.293 -0.197,-0.438 -0.424,-1.017 -0.843,-2.035 -1.27,-3.05 -0.117,-0.279 -0.211,-0.567 -0.361,-0.831 -0.001,0.07 0.004,0.141 -0.002,0.211 -0.021,0.246 -0.201,0.423 -0.449,0.447 -0.099,0.01 -0.202,-0.013 -0.298,0.026 0.013,0.095 0.08,0.162 0.129,0.237 0.784,1.191 1.567,2.383 2.357,3.57 0.132,0.198 0.234,0.398 0.241,0.639 0.001,0.04 0.016,0.08 0.015,0.12 -10e-4,0.042 0.032,0.094 -0.04,0.134 -0.06,-0.082 -0.119,-0.161 -0.176,-0.243 -1.163,-1.692 -2.325,-3.385 -3.489,-5.077 -0.051,-0.074 -0.09,-0.159 -0.169,-0.211 -0.006,0.132 -0.016,0.263 -0.101,0.372 -0.089,0.115 -0.191,0.208 -0.353,0.195 -0.07,-0.005 -0.141,-0.001 -0.211,0 0.035,0.048 0.067,0.1 0.106,0.145 1.166,1.348 2.333,2.695 3.5,4.043 0.06,0.069 0.118,0.139 0.173,0.211 0.026,0.033 0.04,0.076 -0.005,0.103 -0.018,0.011 -0.059,0.003 -0.079,-0.011 -0.049,-0.034 -0.094,-0.076 -0.139,-0.117 -0.529,-0.487 -1.062,-0.97 -1.587,-1.461 -1.974,-1.847 -3.947,-3.697 -5.919,-5.546 -0.051,-0.048 -0.092,-0.109 -0.165,-0.129 -0.039,0.085 -0.031,0.176 -0.025,0.265 0.03,0.436 -0.264,0.745 -0.687,0.841 -0.058,0.013 -0.118,0.012 -0.177,0.018 0.046,0.083 0.13,0.125 0.201,0.179 3.007,2.297 6.045,4.551 9.124,6.75 0.066,0.047 0.126,0.101 0.189,0.151 v 0 c -0.018,0.023 -0.035,0.046 -0.054,0.069 -0.125,-0.065 -0.252,-0.127 -0.376,-0.195 -3.066,-1.678 -6.102,-3.408 -9.111,-5.187 -0.085,-0.051 -0.16,-0.126 -0.268,-0.132 -0.023,0.116 0.046,0.212 0.068,0.318 0.087,0.408 -0.079,0.757 -0.456,0.933 -0.061,0.029 -0.14,0.027 -0.175,0.103 0.081,0.081 0.193,0.108 0.293,0.151 1.394,0.595 2.787,1.191 4.183,1.781 1.917,0.809 3.848,1.588 5.78,2.361 0.073,0.029 0.157,0.04 0.205,0.116 -0.081,0.048 -0.158,0.01 -0.232,-0.009 -0.362,-0.093 -0.723,-0.189 -1.084,-0.285 -2.861,-0.76 -5.717,-1.536 -8.564,-2.345 -0.349,-0.1 -0.693,-0.219 -1.053,-0.281 0.062,0.091 0.153,0.154 0.218,0.246 0.303,0.429 0.077,0.97 -0.29,1.17 -0.061,0.033 -0.129,0.056 -0.194,0.084 0.029,0.01 0.056,0.025 0.085,0.029 0.541,0.079 1.08,0.158 1.621,0.234 0.491,0.07 0.981,0.137 1.472,0.206 0.501,0.072 1,0.146 1.501,0.217 0.481,0.068 0.962,0.132 1.442,0.198 0.511,0.069 1.022,0.138 1.533,0.208 0.541,0.074 1.082,0.148 1.623,0.221 0.501,0.068 1.003,0.134 1.503,0.202 0.1,0.013 0.201,0.025 0.3,0.043 0.053,0.01 0.15,-0.015 0.138,0.068 -0.009,0.061 -0.101,0.031 -0.155,0.03 -0.192,-10e-4 -0.384,-0.011 -0.577,-0.013 -0.861,-0.009 -1.721,-0.017 -2.581,-0.024 -1.548,-0.013 -3.097,-0.027 -4.645,-0.037 -1.64,-0.01 -3.28,-0.016 -4.919,-0.023 -0.091,-0.001 -0.183,-0.008 -0.262,0.054 0.101,10e-4 0.201,0.003 0.301,0.003 0.349,-0.001 0.594,0.174 0.748,0.47 0.173,0.332 0.133,0.66 -0.086,0.963 -0.052,0.073 -0.115,0.138 -0.172,0.207 0.205,0.025 0.402,-0.037 0.602,-0.062 0.542,-0.067 1.083,-0.144 1.624,-0.215 0.542,-0.071 1.083,-0.141 1.625,-0.21 0.561,-0.072 1.124,-0.145 1.686,-0.215 0.572,-0.072 1.145,-0.141 1.717,-0.21 0.411,-0.05 0.823,-0.098 1.235,-0.147 0.442,-0.053 0.884,-0.106 1.326,-0.157 0.432,-0.051 0.864,-0.1 1.297,-0.148 0.411,-0.046 0.823,-0.093 1.235,-0.137 0.027,-0.003 0.037,0.016 0.049,-0.007 -0.049,0.094 -0.102,0.096 -0.15,0.108 -1.854,0.454 -3.712,0.899 -5.563,1.366 -2.791,0.705 -5.57,1.458 -8.343,2.234 -0.162,0.046 -0.338,0.06 -0.483,0.162 0.15,0.006 0.3,0.015 0.44,0.074 0.383,0.161 0.6,0.5 0.656,0.934 -0.044,0.184 -0.061,0.376 -0.167,0.54 -0.033,0.051 -0.069,0.099 -0.062,0.164 0.098,0.012 0.175,-0.046 0.257,-0.081 3.034,-1.283 6.085,-2.528 9.158,-3.716 1.376,-0.532 2.759,-1.046 4.139,-1.568 0.048,-0.018 0.097,-0.072 0.154,-0.011 -0.058,0.081 -0.15,0.105 -0.23,0.146 -1.772,0.911 -3.535,1.839 -5.29,2.781 -6.089,3.266 -12.081,6.705 -18.015,10.244 -0.052,0.031 -0.097,0.07 -0.146,0.106 0.081,-0.003 0.163,0.002 0.243,-0.01 0.459,-0.072 0.862,0.067 1.211,0.35 0.258,0.208 0.406,0.498 0.495,0.816 0.08,0.281 0.072,0.559 -0.026,0.833 -0.028,0.079 -0.043,0.156 -0.006,0.235 0.076,-0.049 0.155,-0.094 0.229,-0.147 0.737,-0.535 1.474,-1.072 2.21,-1.608 5.249,-3.816 10.536,-7.58 15.884,-11.255 1.001,-0.688 2.007,-1.369 3.011,-2.052 0.09,-0.061 0.177,-0.076 0.181,-0.037 0.005,0.072 -0.051,0.106 -0.095,0.146 -0.052,0.048 -0.106,0.094 -0.16,0.14 -2.467,2.133 -4.934,4.266 -7.401,6.399 -3.563,3.08 -7.126,6.159 -10.688,9.24 -0.037,0.032 -0.067,0.073 -0.1,0.11 0.102,0.004 0.2,-0.007 0.3,-0.031 0.362,-0.088 0.683,0.034 0.968,0.24 0.318,0.23 0.482,0.563 0.542,0.948 0.012,0.081 -10e-4,0.159 -0.015,0.24 -0.026,0.147 -0.083,0.29 -0.067,0.443 0.073,-0.021 0.113,-0.083 0.162,-0.133 0.778,-0.797 1.557,-1.593 2.332,-2.393 2.247,-2.32 4.487,-4.646 6.708,-6.99 1.977,-2.087 3.944,-4.184 5.891,-6.301 0.528,-0.574 1.054,-1.149 1.582,-1.723 0.061,-0.066 0.129,-0.127 0.196,-0.187 0.009,-0.008 0.037,-0.001 0.053,0.006 0.023,0.01 0.027,0.031 0.014,0.052 -0.054,0.084 -0.106,0.171 -0.165,0.253 -2.154,3.015 -4.362,5.99 -6.61,8.936 -4.042,5.297 -8.207,10.495 -12.452,15.63 -0.063,0.076 -0.145,0.142 -0.172,0.245 0.085,0.017 0.159,-0.015 0.232,-0.053 0.21,-0.109 0.442,-0.141 0.67,-0.18 0.223,-0.038 0.445,0.016 0.658,0.075 0.828,0.233 1.312,0.787 1.49,1.624 0.039,0.18 0.048,0.359 0.051,0.541 0.078,-0.053 0.116,-0.139 0.165,-0.214 1.291,-1.949 2.571,-3.906 3.832,-5.874 3.282,-5.122 6.451,-10.313 9.472,-15.593 0.96,-1.677 1.903,-3.364 2.831,-5.06 0.044,-0.08 0.093,-0.156 0.143,-0.231 0.006,-0.01 0.04,-0.012 0.054,-0.004 0.015,0.008 0.032,0.035 0.028,0.048 -0.024,0.087 -0.049,0.174 -0.082,0.258 -1.204,3.048 -2.423,6.09 -3.683,9.116 -1.869,4.493 -3.819,8.951 -5.917,13.342 -0.968,2.027 -1.981,4.031 -2.977,6.044 -1.122,2.267 -2.247,4.532 -3.376,6.795 -0.08,0.16 -0.079,0.287 -0.013,0.452 0.871,2.179 1.733,4.361 2.601,6.542 0.082,0.205 0.141,0.421 0.258,0.612 0.127,0.849 0.969,1.38 1.781,1.113 0.511,-0.168 0.831,-0.519 0.943,-1.051 0.062,-0.178 0.048,-0.363 0.015,-0.54 -0.027,-0.145 -0.011,-0.281 0.022,-0.418 0.31,-1.319 0.621,-2.639 0.934,-3.957 0.041,-0.171 0.04,-0.329 -0.018,-0.502 -0.366,-1.093 -0.719,-2.191 -1.077,-3.287 -0.138,-0.423 -0.271,-0.848 -0.417,-1.268 -0.084,-0.243 -0.038,-0.223 0.111,-0.352 0.023,-0.02 0.048,-0.038 0.071,-0.057 0.941,-0.769 1.88,-1.54 2.825,-2.303 0.14,-0.113 0.228,-0.244 0.287,-0.412 0.685,-1.946 1.355,-3.898 1.981,-5.864 0.813,-2.555 1.546,-5.133 2.169,-7.741 0.498,-2.086 0.934,-4.186 1.376,-6.284 0.552,-2.623 1.128,-5.241 1.766,-7.845 0.166,-0.678 0.333,-1.355 0.501,-2.033 0.017,-0.069 0.037,-0.137 0.062,-0.203 0.01,-0.026 0.039,-0.048 0.072,-0.033 0.016,0.007 0.036,0.026 0.036,0.04 0.002,0.06 0.003,0.121 -0.005,0.181 -0.045,0.341 -0.092,0.682 -0.138,1.023 -0.114,0.832 -0.228,1.664 -0.342,2.496 -0.109,0.792 -0.217,1.584 -0.328,2.376 -0.112,0.802 -0.225,1.603 -0.338,2.405 -0.109,0.772 -0.216,1.544 -0.326,2.315 -0.114,0.801 -0.231,1.603 -0.346,2.404 -0.107,0.741 -0.212,1.482 -0.321,2.223 -0.112,0.761 -0.228,1.521 -0.34,2.281 -0.13,0.881 -0.256,1.762 -0.389,2.643 -0.151,1 -0.31,2 -0.456,3.001 -0.031,0.209 -0.095,0.416 -0.074,0.631 0.113,-0.126 0.223,-0.257 0.342,-0.378 0.521,-0.528 1.365,-0.706 2.067,-0.406 0.505,0.216 0.865,0.574 1.067,1.089 0.007,0.018 0.024,0.032 0.035,0.047 0.004,-0.04 0.011,-0.08 0.011,-0.12 -0.007,-1.519 -0.016,-3.038 -0.022,-4.556 -0.006,-1.6 -0.012,-3.2 -0.016,-4.8 -10e-4,-0.466 0.012,-0.932 0.015,-1.397 0.005,-1.023 0.006,-2.045 0.011,-3.068 0.011,-2.815 0.005,-5.631 0.05,-8.445 0.009,-0.587 0.011,-1.175 0.018,-1.762 0.001,-0.06 0.008,-0.12 0.018,-0.179 0.002,-0.014 0.025,-0.027 0.04,-0.035 0.039,-0.019 0.063,0.015 0.067,0.038 0.025,0.16 0.047,0.321 0.066,0.481 0.049,0.432 0.095,0.865 0.146,1.297 0.073,0.623 0.147,1.246 0.222,1.869 0.068,0.573 0.136,1.146 0.207,1.718 0.091,0.733 0.185,1.466 0.278,2.199 0.069,0.542 0.137,1.084 0.208,1.626 0.092,0.702 0.186,1.404 0.281,2.107 0.09,0.662 0.181,1.324 0.274,1.985 0.11,0.782 0.22,1.563 0.332,2.345 0.11,0.761 0.221,1.522 0.334,2.283 0.11,0.741 0.221,1.481 0.336,2.221 0.104,0.67 0.214,1.338 0.321,2.007 0.011,-0.017 0.028,-0.033 0.031,-0.051 0.078,-0.51 0.38,-0.868 0.805,-1.118 0.317,-0.187 0.667,-0.269 1.048,-0.194 0.39,0.076 0.728,0.234 0.998,0.528 0.02,0.022 0.048,0.035 0.073,0.053 -0.012,-0.059 -0.02,-0.119 -0.038,-0.176 -0.734,-2.429 -1.45,-4.864 -2.138,-7.307 -1.162,-4.127 -2.254,-8.273 -3.266,-12.439 -0.117,-0.481 -0.229,-0.964 -0.343,-1.447 -0.011,-0.048 -0.035,-0.096 -0.008,-0.146 0.005,-0.009 0.013,-0.021 0.02,-0.022 0.018,-0.002 0.049,-0.004 0.053,0.004 0.029,0.053 0.054,0.108 0.075,0.165 0.193,0.511 0.385,1.022 0.578,1.533 1.661,4.389 3.434,8.733 5.271,13.052 0.043,0.101 0.097,0.198 0.146,0.296 0.007,-0.273 0.104,-0.514 0.271,-0.724 0.212,-0.269 0.71,-0.504 1.211,-0.296 0.082,0.034 0.156,0.101 0.256,0.067 -0.014,-0.116 -0.088,-0.203 -0.143,-0.298 -2.544,-4.474 -5.012,-8.99 -7.368,-13.566 -0.062,-0.12 -0.179,-0.225 -0.148,-0.379 0.011,-0.054 0.089,0.016 0.285,0.304 1.878,2.772 3.783,5.525 5.709,8.263 0.057,0.081 0.098,0.177 0.187,0.234 0.006,-0.109 -0.005,-0.223 0.023,-0.326 0.077,-0.29 0.321,-0.508 0.633,-0.477 0.109,0.011 0.219,0.009 0.328,0.013 -0.061,-0.08 -0.118,-0.163 -0.183,-0.239 -1.747,-2.022 -3.495,-4.043 -5.243,-6.065 -0.477,-0.551 -0.954,-1.103 -1.43,-1.654 -0.04,-0.046 -0.079,-0.092 -0.114,-0.141 -0.009,-0.012 -0.005,-0.039 0.003,-0.054 0.018,-0.033 0.053,-0.03 0.077,-0.011 0.056,0.043 0.109,0.091 0.161,0.138 0.5,0.458 1.004,0.913 1.5,1.375 1.83,1.704 3.657,3.41 5.486,5.114 0.051,0.047 0.093,0.108 0.165,0.13 -0.002,-0.07 -0.002,-0.141 -0.008,-0.211 -0.032,-0.41 0.281,-0.725 0.682,-0.699 0.06,0.004 0.12,0.003 0.181,0.004 -0.275,-0.254 -0.586,-0.462 -0.884,-0.687 -2.301,-1.736 -4.623,-3.443 -6.967,-5.119 -0.066,-0.047 -0.129,-0.097 -0.191,-0.148 -0.011,-0.009 -0.017,-0.04 -0.01,-0.051 0.01,-0.013 0.034,-0.024 0.053,-0.023 0.107,0.003 0.185,0.074 0.273,0.122 2.661,1.452 5.297,2.949 7.913,4.479 0.095,0.055 0.18,0.132 0.294,0.149 -0.03,-0.136 -0.075,-0.266 -0.072,-0.41 0.01,-0.373 0.247,-0.644 0.617,-0.683 0.059,-0.006 0.119,-0.002 0.18,-0.002 -0.044,-0.024 -0.086,-0.051 -0.132,-0.07 -1.768,-0.745 -3.535,-1.497 -5.307,-2.233 -1.119,-0.465 -2.248,-0.908 -3.371,-1.364 -0.08,-0.033 -0.182,-0.037 -0.229,-0.131 0.046,-0.062 0.102,-0.097 0.182,-0.074 0.068,0.019 0.137,0.035 0.205,0.053 3.358,0.891 6.711,1.801 10.051,2.758 0.261,0.075 0.516,0.177 0.789,0.205 -0.049,-0.076 -0.103,-0.15 -0.145,-0.23 -0.173,-0.323 -0.135,-0.751 0.114,-1.018 0.152,-0.163 0.336,-0.292 0.584,-0.271 0.1,0.008 0.202,-0.001 0.303,-0.003 -0.034,-0.019 -0.07,-0.045 -0.108,-0.047 z"
           id="path114"
           style="fill:#ffffff;fill-opacity:1;stroke-width:0.99840106;stroke-dasharray:none" />
        <radialGradient
           id="SVGID_12_"
           cx="-151.1082"
           cy="1158.5756"
           r="0.00053783029"
           fx="-151.1077"
           fy="1158.5753"
           gradientTransform="translate(181.5,-909.259)"
           gradientUnits="userSpaceOnUse">
          <stop
             offset="0"
             style="stop-color:#000000"
             id="stop115" />
          <stop
             offset="0.1808"
             style="stop-color:#3C3C3C"
             id="stop116" />
          <stop
             offset="0.4034"
             style="stop-color:#818181"
             id="stop117" />
          <stop
             offset="0.6048"
             style="stop-color:#B7B7B7"
             id="stop118" />
          <stop
             offset="0.7776"
             style="stop-color:#DEDEDE"
             id="stop119" />
          <stop
             offset="0.9151"
             style="stop-color:#F6F6F6"
             id="stop120" />
          <stop
             offset="1"
             style="stop-color:#FFFFFF"
             id="stop121" />
        </radialGradient>
        <polygon
           fill="url(#SVGID_12_)"
           points="30.392,249.317 30.392,249.316 "
           id="polygon121"
           style="fill:#ffffff;fill-opacity:1;stroke-width:0.99840106;stroke-dasharray:none" />
        <radialGradient
           id="SVGID_13_"
           cx="-138.9709"
           cy="1161.7273"
           r="63.393902"
           fx="-78.847"
           fy="1141.6301"
           gradientTransform="translate(181.5,-909.259)"
           gradientUnits="userSpaceOnUse">
          <stop
             offset="0"
             style="stop-color:#000000"
             id="stop122" />
          <stop
             offset="0.1808"
             style="stop-color:#3C3C3C"
             id="stop123" />
          <stop
             offset="0.4034"
             style="stop-color:#818181"
             id="stop124" />
          <stop
             offset="0.6048"
             style="stop-color:#B7B7B7"
             id="stop125" />
          <stop
             offset="0.7776"
             style="stop-color:#DEDEDE"
             id="stop126" />
          <stop
             offset="0.9151"
             style="stop-color:#F6F6F6"
             id="stop127" />
          <stop
             offset="1"
             style="stop-color:#FFFFFF"
             id="stop128" />
        </radialGradient>
        <path
           fill="url(#SVGID_13_)"
           d="m 30.451,249.374 c -0.016,-0.016 -0.032,-0.032 -0.049,-0.048 v 0 0 c 10e-4,0 10e-4,0 0.002,0 -0.001,0 -0.001,0 -0.001,0 0.015,0.015 0.032,0.031 0.048,0.048 0,-0.001 0,-0.001 0,-0.001 0,0 0,0 0,0.001 v 0 c 0,-0.001 0,0 0,0 z"
           id="path128"
           style="fill:#ffffff;fill-opacity:1;stroke-width:0.99840106;stroke-dasharray:none" />
      </g>
      <circle
         fill="url(#SVGID_15_)"
         cx="19.257"
         cy="294.422"
         r="1.376"
         id="circle143"
         style="fill:#ffffff;fill-opacity:1;stroke-width:0.99840106;stroke-dasharray:none" />
      <g
         id="g257"
         style="fill:#ffffff;fill-opacity:1;stroke-width:0.99840106;stroke-dasharray:none">
        <radialGradient
           id="SVGID_16_"
           cx="-151.9095"
           cy="1185.7642"
           r="1.9189"
           gradientTransform="translate(181.5,-909.259)"
           gradientUnits="userSpaceOnUse">
          <stop
             offset="5.166998e-004"
             style="stop-color:#29A7C3"
             id="stop144" />
          <stop
             offset="0.3316"
             style="stop-color:#29A5C2"
             id="stop145" />
          <stop
             offset="0.5516"
             style="stop-color:#299FBE"
             id="stop146" />
          <stop
             offset="0.7393"
             style="stop-color:#2A95B8"
             id="stop147" />
          <stop
             offset="0.9079"
             style="stop-color:#2B86B0"
             id="stop148" />
          <stop
             offset="1"
             style="stop-color:#2B7CAA"
             id="stop149" />
        </radialGradient>
        <path
           fill="url(#SVGID_16_)"
           d="m 27.905,275.518 c 0.113,-0.126 0.223,-0.257 0.342,-0.378 0.521,-0.528 1.365,-0.706 2.067,-0.406 0.505,0.216 0.865,0.574 1.067,1.089 0.007,0.018 0.024,0.032 0.035,0.047 0.116,0.386 0.131,0.774 0.022,1.165 -0.221,0.788 -0.976,1.423 -1.915,1.384 -1.066,-0.044 -1.674,-0.831 -1.812,-1.516 -0.074,-0.368 -0.049,-0.723 0.075,-1.074 0.037,-0.104 0.079,-0.207 0.119,-0.311 z"
           id="path149"
           style="fill:#ffffff;fill-opacity:1;stroke-width:0.99840106;stroke-dasharray:none" />
        <radialGradient
           id="SVGID_17_"
           cx="-145.23981"
           cy="1183.2052"
           r="1.6578"
           gradientTransform="translate(181.5,-909.259)"
           gradientUnits="userSpaceOnUse">
          <stop
             offset="5.166998e-004"
             style="stop-color:#29A7C3"
             id="stop150" />
          <stop
             offset="0.3316"
             style="stop-color:#29A5C2"
             id="stop151" />
          <stop
             offset="0.5516"
             style="stop-color:#299FBE"
             id="stop152" />
          <stop
             offset="0.7393"
             style="stop-color:#2A95B8"
             id="stop153" />
          <stop
             offset="0.9079"
             style="stop-color:#2B86B0"
             id="stop154" />
          <stop
             offset="1"
             style="stop-color:#2B7CAA"
             id="stop155" />
        </radialGradient>
        <path
           fill="url(#SVGID_17_)"
           d="m 34.611,273.683 c 0.011,-0.017 0.028,-0.033 0.031,-0.051 0.078,-0.51 0.38,-0.868 0.805,-1.118 0.317,-0.187 0.667,-0.269 1.048,-0.194 0.39,0.076 0.728,0.234 0.998,0.528 0.02,0.022 0.048,0.035 0.073,0.053 0.165,0.245 0.288,0.504 0.337,0.801 0.134,0.824 -0.438,1.74 -1.396,1.879 -0.874,0.126 -1.6,-0.421 -1.824,-1.121 -0.081,-0.254 -0.102,-0.513 -0.072,-0.777 z"
           id="path155"
           style="fill:#ffffff;fill-opacity:1;stroke-width:0.99840106;stroke-dasharray:none" />
        <radialGradient
           id="SVGID_18_"
           cx="-173.8868"
           cy="1174.8022"
           r="1.5584"
           gradientTransform="translate(181.5,-909.259)"
           gradientUnits="userSpaceOnUse">
          <stop
             offset="5.166998e-004"
             style="stop-color:#29A7C3"
             id="stop156" />
          <stop
             offset="0.3316"
             style="stop-color:#29A5C2"
             id="stop157" />
          <stop
             offset="0.5516"
             style="stop-color:#299FBE"
             id="stop158" />
          <stop
             offset="0.7393"
             style="stop-color:#2A95B8"
             id="stop159" />
          <stop
             offset="0.9079"
             style="stop-color:#2B86B0"
             id="stop160" />
          <stop
             offset="1"
             style="stop-color:#2B7CAA"
             id="stop161" />
        </radialGradient>
        <path
           fill="url(#SVGID_18_)"
           d="m 7.177,264.023 c 0.081,-0.003 0.163,0.002 0.243,-0.01 0.459,-0.072 0.862,0.067 1.211,0.35 0.258,0.208 0.406,0.498 0.495,0.816 0.08,0.281 0.072,0.559 -0.026,0.833 -0.028,0.079 -0.043,0.156 -0.006,0.235 H 9.092 c -0.076,-0.037 -0.083,0.018 -0.093,0.069 -0.074,0.082 -0.147,0.165 -0.221,0.247 -0.43,0.484 -1.107,0.655 -1.709,0.435 -0.526,-0.193 -1.011,-0.682 -1.023,-1.434 -0.011,-0.624 0.278,-1.102 0.827,-1.411 0.096,-0.054 0.203,-0.087 0.304,-0.13 z"
           id="path161"
           style="fill:#ffffff;fill-opacity:1;stroke-width:0.99840106;stroke-dasharray:none" />
        <radialGradient
           id="SVGID_19_"
           cx="-168.83051"
           cy="1177.5649"
           r="1.3059"
           gradientTransform="translate(181.5,-909.259)"
           gradientUnits="userSpaceOnUse">
          <stop
             offset="5.166998e-004"
             style="stop-color:#29A7C3"
             id="stop162" />
          <stop
             offset="0.3316"
             style="stop-color:#29A5C2"
             id="stop163" />
          <stop
             offset="0.5516"
             style="stop-color:#299FBE"
             id="stop164" />
          <stop
             offset="0.7393"
             style="stop-color:#2A95B8"
             id="stop165" />
          <stop
             offset="0.9079"
             style="stop-color:#2B86B0"
             id="stop166" />
          <stop
             offset="1"
             style="stop-color:#2B7CAA"
             id="stop167" />
        </radialGradient>
        <path
           fill="url(#SVGID_19_)"
           d="m 12.166,267.064 c 0.102,0.004 0.2,-0.007 0.3,-0.031 0.362,-0.088 0.683,0.034 0.968,0.24 0.318,0.23 0.482,0.563 0.542,0.948 0.012,0.081 -0.001,0.159 -0.015,0.24 -0.026,0.147 -0.083,0.29 -0.067,0.443 l -0.003,-10e-4 c -0.069,-0.004 -0.084,0.041 -0.088,0.097 -0.231,0.313 -0.537,0.511 -0.918,0.585 -0.727,0.141 -1.442,-0.394 -1.516,-1.119 -0.054,-0.528 0.137,-0.945 0.57,-1.252 0.049,-0.034 0.103,-0.062 0.154,-0.093 0.038,-0.003 0.065,-0.02 0.075,-0.059 z"
           id="path167"
           style="fill:#ffffff;fill-opacity:1;stroke-width:0.99840106;stroke-dasharray:none" />
        <radialGradient
           id="SVGID_20_"
           cx="-142.49339"
           cy="1175.6453"
           r="1.0802"
           gradientTransform="translate(181.5,-909.259)"
           gradientUnits="userSpaceOnUse">
          <stop
             offset="5.166998e-004"
             style="stop-color:#29A7C3"
             id="stop168" />
          <stop
             offset="0.3316"
             style="stop-color:#29A5C2"
             id="stop169" />
          <stop
             offset="0.5516"
             style="stop-color:#299FBE"
             id="stop170" />
          <stop
             offset="0.7393"
             style="stop-color:#2A95B8"
             id="stop171" />
          <stop
             offset="0.9079"
             style="stop-color:#2B86B0"
             id="stop172" />
          <stop
             offset="1"
             style="stop-color:#2B7CAA"
             id="stop173" />
        </radialGradient>
        <path
           fill="url(#SVGID_20_)"
           d="m 37.918,266.415 c 0.007,-0.273 0.104,-0.514 0.271,-0.724 0.212,-0.269 0.71,-0.504 1.211,-0.296 0.082,0.034 0.156,0.102 0.256,0.067 l -0.002,0.004 c -0.006,0.044 0.016,0.067 0.055,0.079 0.059,0.069 0.124,0.134 0.175,0.208 0.26,0.379 0.281,0.778 0.055,1.172 -0.228,0.397 -0.592,0.574 -1.046,0.526 -0.455,-0.049 -0.76,-0.305 -0.908,-0.74 -0.033,-0.096 -0.046,-0.198 -0.067,-0.296 z"
           id="path173"
           style="fill:#ffffff;fill-opacity:1;stroke-width:0.99840106;stroke-dasharray:none" />
        <radialGradient
           id="SVGID_21_"
           cx="-165.13721"
           cy="1164.5544"
           r="1.0102"
           gradientTransform="translate(181.5,-909.259)"
           gradientUnits="userSpaceOnUse">
          <stop
             offset="5.166998e-004"
             style="stop-color:#29A7C3"
             id="stop174" />
          <stop
             offset="0.3316"
             style="stop-color:#29A5C2"
             id="stop175" />
          <stop
             offset="0.5516"
             style="stop-color:#299FBE"
             id="stop176" />
          <stop
             offset="0.7393"
             style="stop-color:#2A95B8"
             id="stop177" />
          <stop
             offset="0.9079"
             style="stop-color:#2B86B0"
             id="stop178" />
          <stop
             offset="1"
             style="stop-color:#2B7CAA"
             id="stop179" />
        </radialGradient>
        <path
           fill="url(#SVGID_21_)"
           d="m 16.284,254.292 c 0.15,0.006 0.3,0.015 0.44,0.074 0.383,0.161 0.6,0.5 0.656,0.934 -0.044,0.184 -0.061,0.376 -0.167,0.54 -0.033,0.051 -0.069,0.099 -0.062,0.164 l 0.003,-0.002 c -0.054,-0.011 -0.094,0.01 -0.119,0.059 -0.098,0.052 -0.192,0.113 -0.294,0.154 -0.382,0.154 -0.74,0.095 -1.047,-0.174 -0.308,-0.27 -0.414,-0.62 -0.307,-1.016 0.108,-0.396 0.374,-0.636 0.776,-0.724 0.039,-0.008 0.08,-0.006 0.121,-0.009 z"
           id="path179"
           style="fill:#ffffff;fill-opacity:1;stroke-width:0.99840106;stroke-dasharray:none" />
        <radialGradient
           id="SVGID_22_"
           cx="-163.6243"
           cy="1160.4354"
           r="0.90350002"
           gradientTransform="translate(181.5,-909.259)"
           gradientUnits="userSpaceOnUse">
          <stop
             offset="5.166998e-004"
             style="stop-color:#29A7C3"
             id="stop180" />
          <stop
             offset="0.3316"
             style="stop-color:#29A5C2"
             id="stop181" />
          <stop
             offset="0.5516"
             style="stop-color:#299FBE"
             id="stop182" />
          <stop
             offset="0.7393"
             style="stop-color:#2A95B8"
             id="stop183" />
          <stop
             offset="0.9079"
             style="stop-color:#2B86B0"
             id="stop184" />
          <stop
             offset="1"
             style="stop-color:#2B7CAA"
             id="stop185" />
        </radialGradient>
        <path
           fill="url(#SVGID_22_)"
           d="m 17.636,250.287 c 0.101,0.001 0.201,0.003 0.301,0.003 0.349,-0.001 0.594,0.174 0.748,0.47 0.173,0.332 0.133,0.66 -0.086,0.963 -0.052,0.073 -0.115,0.138 -0.172,0.207 -0.19,0.068 -0.376,0.135 -0.585,0.136 -0.304,0.002 -0.703,-0.203 -0.841,-0.627 -0.114,-0.352 -0.001,-0.752 0.286,-0.985 0.103,-0.083 0.211,-0.159 0.349,-0.167 z"
           id="path185"
           style="fill:#ffffff;fill-opacity:1;stroke-width:0.99840106;stroke-dasharray:none" />
        <radialGradient
           id="SVGID_23_"
           cx="-137.03"
           cy="1162.2958"
           r="0.8804"
           gradientTransform="translate(181.5,-909.259)"
           gradientUnits="userSpaceOnUse">
          <stop
             offset="5.166998e-004"
             style="stop-color:#29A7C3"
             id="stop186" />
          <stop
             offset="0.3316"
             style="stop-color:#29A5C2"
             id="stop187" />
          <stop
             offset="0.5516"
             style="stop-color:#299FBE"
             id="stop188" />
          <stop
             offset="0.7393"
             style="stop-color:#2A95B8"
             id="stop189" />
          <stop
             offset="0.9079"
             style="stop-color:#2B86B0"
             id="stop190" />
          <stop
             offset="1"
             style="stop-color:#2B7CAA"
             id="stop191" />
        </radialGradient>
        <path
           fill="url(#SVGID_23_)"
           d="m 43.83,253.688 c -0.049,-0.076 -0.103,-0.15 -0.145,-0.23 -0.173,-0.323 -0.135,-0.751 0.114,-1.018 0.152,-0.163 0.336,-0.292 0.584,-0.271 0.1,0.008 0.202,-0.001 0.303,-0.003 0.512,0.139 0.788,0.628 0.631,1.116 -0.163,0.504 -0.701,0.756 -1.19,0.553 -0.103,-0.041 -0.198,-0.097 -0.297,-0.147 z"
           id="path191"
           style="fill:#ffffff;fill-opacity:1;stroke-width:0.99840106;stroke-dasharray:none" />
        <radialGradient
           id="SVGID_24_"
           cx="-162.1395"
           cy="1157.1161"
           r="0.8186"
           gradientTransform="translate(181.5,-909.259)"
           gradientUnits="userSpaceOnUse">
          <stop
             offset="5.166998e-004"
             style="stop-color:#29A7C3"
             id="stop192" />
          <stop
             offset="0.3316"
             style="stop-color:#29A5C2"
             id="stop193" />
          <stop
             offset="0.5516"
             style="stop-color:#299FBE"
             id="stop194" />
          <stop
             offset="0.7393"
             style="stop-color:#2A95B8"
             id="stop195" />
          <stop
             offset="0.9079"
             style="stop-color:#2B86B0"
             id="stop196" />
          <stop
             offset="1"
             style="stop-color:#2B7CAA"
             id="stop197" />
        </radialGradient>
        <path
           fill="url(#SVGID_24_)"
           d="m 19.823,247.174 c 0.062,0.091 0.153,0.154 0.218,0.246 0.303,0.429 0.077,0.97 -0.29,1.17 -0.061,0.033 -0.129,0.056 -0.194,0.084 -0.08,-0.004 -0.161,-0.005 -0.241,-0.011 -0.51,-0.04 -0.849,-0.461 -0.763,-0.955 0.072,-0.411 0.47,-0.773 1.023,-0.638 0.085,0.02 0.164,0.068 0.247,0.104 z"
           id="path197"
           style="fill:#ffffff;fill-opacity:1;stroke-width:0.99840106;stroke-dasharray:none" />
        <radialGradient
           id="SVGID_25_"
           cx="-161.3616"
           cy="1154.1066"
           r="0.82359999"
           gradientTransform="translate(181.5,-909.259)"
           gradientUnits="userSpaceOnUse">
          <stop
             offset="5.166998e-004"
             style="stop-color:#29A7C3"
             id="stop198" />
          <stop
             offset="0.3316"
             style="stop-color:#29A5C2"
             id="stop199" />
          <stop
             offset="0.5516"
             style="stop-color:#299FBE"
             id="stop200" />
          <stop
             offset="0.7393"
             style="stop-color:#2A95B8"
             id="stop201" />
          <stop
             offset="0.9079"
             style="stop-color:#2B86B0"
             id="stop202" />
          <stop
             offset="1"
             style="stop-color:#2B7CAA"
             id="stop203" />
        </radialGradient>
        <path
           fill="url(#SVGID_25_)"
           d="m 20.855,244.333 c -0.023,0.116 0.046,0.212 0.068,0.318 0.087,0.408 -0.079,0.757 -0.456,0.933 -0.061,0.029 -0.14,0.027 -0.175,0.103 -0.117,-0.027 -0.234,-0.053 -0.351,-0.082 -0.333,-0.084 -0.582,-0.373 -0.609,-0.705 -0.03,-0.367 0.153,-0.682 0.482,-0.823 0.234,-0.101 0.471,-0.088 0.698,0.024 0.08,0.039 0.148,0.101 0.222,0.152 0.018,0.061 0.056,0.09 0.12,0.081 z"
           id="path203"
           style="fill:#ffffff;fill-opacity:1;stroke-width:0.99840106;stroke-dasharray:none" />
        <radialGradient
           id="SVGID_26_"
           cx="-160.27251"
           cy="1151.1293"
           r="0.81950003"
           gradientTransform="translate(181.5,-909.259)"
           gradientUnits="userSpaceOnUse">
          <stop
             offset="5.166998e-004"
             style="stop-color:#29A7C3"
             id="stop204" />
          <stop
             offset="0.3316"
             style="stop-color:#29A5C2"
             id="stop205" />
          <stop
             offset="0.5516"
             style="stop-color:#299FBE"
             id="stop206" />
          <stop
             offset="0.7393"
             style="stop-color:#2A95B8"
             id="stop207" />
          <stop
             offset="0.9079"
             style="stop-color:#2B86B0"
             id="stop208" />
          <stop
             offset="1"
             style="stop-color:#2B7CAA"
             id="stop209" />
        </radialGradient>
        <path
           fill="url(#SVGID_26_)"
           d="m 22.039,241.573 c -0.039,0.085 -0.031,0.176 -0.025,0.265 0.03,0.436 -0.264,0.745 -0.687,0.841 -0.058,0.013 -0.118,0.012 -0.177,0.018 -0.092,-0.04 -0.186,-0.077 -0.276,-0.122 -0.31,-0.155 -0.468,-0.408 -0.457,-0.755 0.01,-0.335 0.178,-0.577 0.484,-0.707 0.318,-0.135 0.614,-0.076 0.869,0.158 0.066,0.061 0.118,0.137 0.177,0.206 0.006,0.055 0.013,0.109 0.091,0.096 z"
           id="path209"
           style="fill:#ffffff;fill-opacity:1;stroke-width:0.99840106;stroke-dasharray:none" />
        <radialGradient
           id="SVGID_27_"
           cx="-139.9792"
           cy="1164.4808"
           r="0.67729998"
           gradientTransform="translate(181.5,-909.259)"
           gradientUnits="userSpaceOnUse">
          <stop
             offset="5.166998e-004"
             style="stop-color:#29A7C3"
             id="stop210" />
          <stop
             offset="0.3316"
             style="stop-color:#29A5C2"
             id="stop211" />
          <stop
             offset="0.5516"
             style="stop-color:#299FBE"
             id="stop212" />
          <stop
             offset="0.7393"
             style="stop-color:#2A95B8"
             id="stop213" />
          <stop
             offset="0.9079"
             style="stop-color:#2B86B0"
             id="stop214" />
          <stop
             offset="1"
             style="stop-color:#2B7CAA"
             id="stop215" />
        </radialGradient>
        <path
           fill="url(#SVGID_27_)"
           d="m 40.916,255.639 c -0.03,-0.136 -0.075,-0.266 -0.072,-0.41 0.01,-0.373 0.247,-0.644 0.617,-0.683 0.059,-0.006 0.119,-0.002 0.18,-0.002 0.084,0.002 0.155,0.044 0.223,0.084 0.309,0.186 0.422,0.579 0.259,0.897 -0.162,0.317 -0.545,0.459 -0.878,0.319 -0.119,-0.049 -0.234,-0.112 -0.329,-0.205 z"
           id="path215"
           style="fill:#ffffff;fill-opacity:1;stroke-width:0.99840106;stroke-dasharray:none" />
        <radialGradient
           id="SVGID_28_"
           cx="-142.6555"
           cy="1169.1155"
           r="0.65600002"
           gradientTransform="translate(181.5,-909.259)"
           gradientUnits="userSpaceOnUse">
          <stop
             offset="5.166998e-004"
             style="stop-color:#29A7C3"
             id="stop216" />
          <stop
             offset="0.3316"
             style="stop-color:#29A5C2"
             id="stop217" />
          <stop
             offset="0.5516"
             style="stop-color:#299FBE"
             id="stop218" />
          <stop
             offset="0.7393"
             style="stop-color:#2A95B8"
             id="stop219" />
          <stop
             offset="0.9079"
             style="stop-color:#2B86B0"
             id="stop220" />
          <stop
             offset="1"
             style="stop-color:#2B7CAA"
             id="stop221" />
        </radialGradient>
        <path
           fill="url(#SVGID_28_)"
           d="m 38.177,260.018 c 0.006,-0.109 -0.005,-0.223 0.023,-0.326 0.077,-0.29 0.321,-0.508 0.633,-0.477 0.109,0.011 0.219,0.009 0.328,0.013 0.066,0.061 0.139,0.116 0.196,0.184 0.226,0.274 0.203,0.658 -0.048,0.901 -0.249,0.242 -0.633,0.249 -0.902,0.016 -0.101,-0.085 -0.181,-0.187 -0.23,-0.311 z"
           id="path221"
           style="fill:#ffffff;fill-opacity:1;stroke-width:0.99840106;stroke-dasharray:none" />
        <radialGradient
           id="SVGID_29_"
           cx="-141.28169"
           cy="1166.8137"
           r="0.64569998"
           gradientTransform="translate(181.5,-909.259)"
           gradientUnits="userSpaceOnUse">
          <stop
             offset="5.166998e-004"
             style="stop-color:#29A7C3"
             id="stop222" />
          <stop
             offset="0.3316"
             style="stop-color:#29A5C2"
             id="stop223" />
          <stop
             offset="0.5516"
             style="stop-color:#299FBE"
             id="stop224" />
          <stop
             offset="0.7393"
             style="stop-color:#2A95B8"
             id="stop225" />
          <stop
             offset="0.9079"
             style="stop-color:#2B86B0"
             id="stop226" />
          <stop
             offset="1"
             style="stop-color:#2B7CAA"
             id="stop227" />
        </radialGradient>
        <path
           fill="url(#SVGID_29_)"
           d="m 39.58,257.822 c -0.002,-0.07 -0.002,-0.141 -0.008,-0.211 -0.032,-0.41 0.281,-0.725 0.682,-0.699 0.06,0.004 0.12,0.003 0.181,0.005 0.075,0.05 0.158,0.091 0.224,0.151 0.238,0.216 0.274,0.593 0.088,0.854 -0.189,0.267 -0.546,0.354 -0.835,0.201 -0.134,-0.073 -0.244,-0.176 -0.332,-0.301 z"
           id="path227"
           style="fill:#ffffff;fill-opacity:1;stroke-width:0.99840106;stroke-dasharray:none" />
        <radialGradient
           id="SVGID_30_"
           cx="-153.32069"
           cy="1153.307"
           r="0.53579998"
           gradientTransform="translate(181.5,-909.259)"
           gradientUnits="userSpaceOnUse">
          <stop
             offset="5.166998e-004"
             style="stop-color:#29A7C3"
             id="stop228" />
          <stop
             offset="0.3316"
             style="stop-color:#29A5C2"
             id="stop229" />
          <stop
             offset="0.5516"
             style="stop-color:#299FBE"
             id="stop230" />
          <stop
             offset="0.7393"
             style="stop-color:#2A95B8"
             id="stop231" />
          <stop
             offset="0.9079"
             style="stop-color:#2B86B0"
             id="stop232" />
          <stop
             offset="1"
             style="stop-color:#2B7CAA"
             id="stop233" />
        </radialGradient>
        <path
           fill="url(#SVGID_30_)"
           d="m 28.698,243.914 c -0.001,0.07 0.004,0.141 -0.002,0.211 -0.021,0.246 -0.201,0.423 -0.449,0.447 -0.099,0.01 -0.202,-0.013 -0.298,0.026 l 0.002,-0.004 c 0.008,-0.046 -0.016,-0.067 -0.056,-0.075 -0.084,-0.075 -0.143,-0.167 -0.187,-0.269 -0.113,-0.26 -0.024,-0.545 0.212,-0.681 0.231,-0.133 0.503,-0.08 0.677,0.131 0.051,0.062 0.095,0.13 0.101,0.214 z"
           id="path233"
           style="fill:#ffffff;fill-opacity:1;stroke-width:0.99840106;stroke-dasharray:none" />
        <radialGradient
           id="SVGID_31_"
           cx="-142.4079"
           cy="1159.194"
           r="0.49599999"
           gradientTransform="translate(181.5,-909.259)"
           gradientUnits="userSpaceOnUse">
          <stop
             offset="5.166998e-004"
             style="stop-color:#29A7C3"
             id="stop234" />
          <stop
             offset="0.3316"
             style="stop-color:#29A5C2"
             id="stop235" />
          <stop
             offset="0.5516"
             style="stop-color:#299FBE"
             id="stop236" />
          <stop
             offset="0.7393"
             style="stop-color:#2A95B8"
             id="stop237" />
          <stop
             offset="0.9079"
             style="stop-color:#2B86B0"
             id="stop238" />
          <stop
             offset="1"
             style="stop-color:#2B7CAA"
             id="stop239" />
        </radialGradient>
        <path
           fill="url(#SVGID_31_)"
           d="m 38.792,250.398 c -0.077,-0.103 -0.166,-0.199 -0.187,-0.335 -0.038,-0.242 0.047,-0.428 0.246,-0.566 0.145,-0.063 0.288,-0.081 0.438,-0.012 0.226,0.105 0.337,0.322 0.286,0.572 -0.046,0.221 -0.244,0.378 -0.484,0.374 -0.099,-0.002 -0.198,-0.022 -0.299,-0.033 z"
           id="path239"
           style="fill:#ffffff;fill-opacity:1;stroke-width:0.99840106;stroke-dasharray:none" />
        <radialGradient
           id="SVGID_32_"
           cx="-155.18201"
           cy="1153.1024"
           r="0.49720001"
           gradientTransform="translate(181.5,-909.259)"
           gradientUnits="userSpaceOnUse">
          <stop
             offset="5.166998e-004"
             style="stop-color:#29A7C3"
             id="stop240" />
          <stop
             offset="0.3316"
             style="stop-color:#29A5C2"
             id="stop241" />
          <stop
             offset="0.5516"
             style="stop-color:#299FBE"
             id="stop242" />
          <stop
             offset="0.7393"
             style="stop-color:#2A95B8"
             id="stop243" />
          <stop
             offset="0.9079"
             style="stop-color:#2B86B0"
             id="stop244" />
          <stop
             offset="1"
             style="stop-color:#2B7CAA"
             id="stop245" />
        </radialGradient>
        <path
           fill="url(#SVGID_32_)"
           d="m 26.819,243.769 c -0.006,0.132 -0.016,0.263 -0.101,0.372 -0.089,0.115 -0.191,0.208 -0.353,0.195 -0.07,-0.005 -0.141,-0.001 -0.211,0 -0.063,-0.049 -0.131,-0.094 -0.189,-0.15 -0.156,-0.15 -0.18,-0.339 -0.11,-0.53 0.062,-0.17 0.192,-0.28 0.383,-0.301 0.209,-0.023 0.378,0.045 0.493,0.223 0.038,0.058 0.059,0.126 0.088,0.191 z"
           id="path245"
           style="fill:#ffffff;fill-opacity:1;stroke-width:0.99840106;stroke-dasharray:none" />
        <radialGradient
           id="SVGID_33_"
           cx="-144.8972"
           cy="1158.0105"
           r="0.37490001"
           gradientTransform="translate(181.5,-909.259)"
           gradientUnits="userSpaceOnUse">
          <stop
             offset="5.166998e-004"
             style="stop-color:#29A7C3"
             id="stop246" />
          <stop
             offset="0.3316"
             style="stop-color:#29A5C2"
             id="stop247" />
          <stop
             offset="0.5516"
             style="stop-color:#299FBE"
             id="stop248" />
          <stop
             offset="0.7393"
             style="stop-color:#2A95B8"
             id="stop249" />
          <stop
             offset="0.9079"
             style="stop-color:#2B86B0"
             id="stop250" />
          <stop
             offset="1"
             style="stop-color:#2B7CAA"
             id="stop251" />
        </radialGradient>
        <path
           fill="url(#SVGID_33_)"
           d="m 36.42,249.129 c -0.01,-0.017 -0.017,-0.038 -0.031,-0.05 -0.187,-0.161 -0.196,-0.351 -0.093,-0.559 0.047,-0.036 0.089,-0.082 0.141,-0.106 0.201,-0.092 0.42,-0.015 0.503,0.172 0.086,0.193 0.008,0.387 -0.198,0.492 -0.017,0.009 -0.039,0.007 -0.058,0.01 -0.048,-0.019 -0.094,-0.023 -0.127,0.027 -0.045,0.004 -0.091,0.009 -0.137,0.014 z"
           id="path251"
           style="fill:#ffffff;fill-opacity:1;stroke-width:0.99840106;stroke-dasharray:none" />
        <radialGradient
           id="SVGID_34_"
           cx="-169.1257"
           cy="1187.5045"
           r="2.0646999"
           gradientTransform="translate(181.5,-909.259)"
           gradientUnits="userSpaceOnUse">
          <stop
             offset="5.166998e-004"
             style="stop-color:#29A7C3"
             id="stop252" />
          <stop
             offset="0.3316"
             style="stop-color:#29A5C2"
             id="stop253" />
          <stop
             offset="0.5516"
             style="stop-color:#299FBE"
             id="stop254" />
          <stop
             offset="0.7393"
             style="stop-color:#2A95B8"
             id="stop255" />
          <stop
             offset="0.9079"
             style="stop-color:#2B86B0"
             id="stop256" />
          <stop
             offset="1"
             style="stop-color:#2B7CAA"
             id="stop257" />
        </radialGradient>
        <circle
           fill="url(#SVGID_34_)"
           cx="12.374"
           cy="278.245"
           r="2.0650001"
           id="circle257"
           style="fill:#ffffff;fill-opacity:1;stroke-width:0.99840106;stroke-dasharray:none" />
      </g>
      <path
         fill="#2CB0D0"
         d="m 32.956,247.454 c 0.031,0.018 0.062,0.035 0.092,0.053 0.422,0.26 0.643,0.64 0.649,1.133 0.005,0.423 -0.17,0.774 -0.5,1.038 -0.33,0.264 -0.671,0.514 -1.007,0.77 -0.134,0.102 -0.268,0.205 -0.403,0.305 -0.17,0.126 -0.418,0.053 -0.485,-0.144 -0.008,-0.024 -0.013,-0.051 -0.016,-0.076 -0.071,-0.556 -0.143,-1.111 -0.212,-1.667 -0.032,-0.258 -0.011,-0.51 0.096,-0.75 0.165,-0.367 0.44,-0.614 0.824,-0.735 0.237,-0.075 0.479,-0.078 0.72,-0.013 0.037,0.01 0.073,0.02 0.109,0.03 0.046,0.02 0.09,0.038 0.133,0.056 z m -1.05,0.941 c -0.079,0.252 0.062,0.524 0.314,0.604 0.252,0.081 0.529,-0.064 0.606,-0.316 0.077,-0.255 -0.063,-0.523 -0.316,-0.602 -0.254,-0.079 -0.525,0.062 -0.604,0.314 z"
         id="path257"
         style="fill:#ffffff;fill-opacity:1;stroke-width:0.99840106;stroke-dasharray:none" />
    </g>
    <polygon
       fill="url(#SVGID_14_)"
       points="19.955,284.418 21.604,289.405 20.398,294.379 17.882,294.476 14.899,287.152 "
       id="polygon137"
       style="fill:url(#linearGradient267);fill-opacity:1;opacity:0.36535163"
       transform="matrix(0.27243561,0,0,0.27243561,1.4547665,-64.673199)" />
  </g>
</svg>
