<svg width="23" height="23" viewBox="0 0 23 23" fill="none" xmlns="http://www.w3.org/2000/svg">
<g clip-path="url(#clip0_608_914)">
<path fill-rule="evenodd" clip-rule="evenodd" d="M16.6562 2.875H18.8125C19.1937 2.875 19.5594 3.02645 19.829 3.29603C20.0985 3.56562 20.25 3.93125 20.25 4.3125V18.6875C20.25 19.0687 20.0985 19.4344 19.829 19.704C19.5594 19.9735 19.1937 20.125 18.8125 20.125H4.4375C4.05625 20.125 3.69062 19.9735 3.42103 19.704C3.15145 19.4344 3 19.0687 3 18.6875V4.3125C3 3.93125 3.15145 3.56562 3.42103 3.29603C3.69062 3.02645 4.05625 2.875 4.4375 2.875H6.59375V2.15625C6.59375 1.96563 6.66948 1.78281 6.80427 1.64802C6.93906 1.51323 7.12188 1.4375 7.3125 1.4375C7.50312 1.4375 7.68594 1.51323 7.82073 1.64802C7.95552 1.78281 8.03125 1.96563 8.03125 2.15625V2.875H15.2188V2.15625C15.2188 1.96563 15.2945 1.78281 15.4293 1.64802C15.5641 1.51323 15.7469 1.4375 15.9375 1.4375C16.1281 1.4375 16.3109 1.51323 16.4457 1.64802C16.5805 1.78281 16.6562 1.96563 16.6562 2.15625V2.875ZM4.4375 7.1875H18.8125V4.3125H16.6562V5.03125C16.6562 5.22187 16.5805 5.40469 16.4457 5.53948C16.3109 5.67427 16.1281 5.75 15.9375 5.75C15.7469 5.75 15.5641 5.67427 15.4293 5.53948C15.2945 5.40469 15.2188 5.22187 15.2188 5.03125V4.3125H8.03125V5.03125C8.03125 5.22187 7.95552 5.40469 7.82073 5.53948C7.68594 5.67427 7.50312 5.75 7.3125 5.75C7.12188 5.75 6.93906 5.67427 6.80427 5.53948C6.66948 5.40469 6.59375 5.22187 6.59375 5.03125V4.3125H4.4375V7.1875ZM16.7355 11H14.8996V12.8359H16.7355V11ZM12.786 11.0505H10.95V12.8865H12.786V11.0505ZM10.95 14.7515H12.786V16.5875H10.95V14.7515ZM16.6694 14.7807H14.8335V16.6166H16.6694V14.7807ZM7 11.0505H8.83594V12.8865H7V11.0505Z" fill="#224282"/>
</g>
<defs>
<clipPath id="clip0_608_914">
<rect width="23" height="23" fill="white"/>
</clipPath>
</defs>
</svg>
