<svg width="26" height="25" viewBox="0 0 26 25" fill="none" xmlns="http://www.w3.org/2000/svg">
<path d="M13.125 4C11.518 4 9.94714 4.47652 8.611 5.36931C7.27485 6.2621 6.23344 7.53105 5.61848 9.0157C5.00352 10.5003 4.84262 12.134 5.15612 13.7101C5.46963 15.2862 6.24346 16.7339 7.37976 17.8702C8.51606 19.0065 9.9638 19.7804 11.5399 20.0939C13.116 20.4074 14.7497 20.2465 16.2343 19.6315C17.719 19.0166 18.9879 17.9752 19.8807 16.639C20.7735 15.3029 21.25 13.732 21.25 12.125C21.2477 9.97081 20.391 7.90551 18.8677 6.38227C17.3445 4.85903 15.2792 4.00227 13.125 4ZM6.25 12.125C6.25207 10.3023 6.97706 8.55479 8.26593 7.26592C9.55479 5.97706 11.3023 5.25207 13.125 5.25V19C11.3023 18.9979 9.55479 18.2729 8.26593 16.9841C6.97706 15.6952 6.25207 13.9477 6.25 12.125Z" fill="white"/>
</svg>
