<svg width="48" height="48" viewBox="0 0 48 48" fill="none" xmlns="http://www.w3.org/2000/svg">
<g clip-path="url(#clip0_60_1496)">
<path d="M30.0051 16.689C29.7414 16.689 29.4837 16.7671 29.2645 16.9136C29.0453 17.0601 28.8744 17.2683 28.7735 17.5118C28.6726 17.7554 28.6462 18.0234 28.6977 18.282C28.7491 18.5406 28.8761 18.7781 29.0625 18.9645C29.2489 19.151 29.4864 19.2779 29.745 19.3294C30.0036 19.3808 30.2716 19.3544 30.5152 19.2535C30.7587 19.1526 30.9669 18.9818 31.1134 18.7625C31.2599 18.5433 31.3381 18.2856 31.3381 18.022C31.3381 17.6684 31.1976 17.3294 30.9476 17.0794C30.6976 16.8294 30.3586 16.689 30.0051 16.689ZM24.0771 18.399C22.9695 18.399 21.8868 18.7274 20.9659 19.3427C20.0449 19.9581 19.3272 20.8327 18.9033 21.8559C18.4795 22.8792 18.3686 24.0052 18.5847 25.0915C18.8007 26.1778 19.3341 27.1756 20.1173 27.9588C20.9004 28.7419 21.8983 29.2753 22.9845 29.4914C24.0708 29.7074 25.1968 29.5965 26.2201 29.1727C27.2433 28.7488 28.1179 28.0311 28.7333 27.1102C29.3486 26.1892 29.6771 25.1065 29.6771 23.999C29.6752 22.5143 29.0846 21.091 28.0348 20.0412C26.985 18.9914 25.5617 18.4008 24.0771 18.399ZM24.0771 27.587C23.3674 27.5872 22.6736 27.3769 22.0834 26.9828C21.4932 26.5886 21.0332 26.0283 20.7615 25.3727C20.4897 24.7171 20.4185 23.9957 20.5569 23.2996C20.6952 22.6035 21.0368 21.9641 21.5386 21.4622C22.0404 20.9603 22.6797 20.6185 23.3757 20.48C24.0717 20.3415 24.7932 20.4125 25.4489 20.684C26.1046 20.9555 26.665 21.4154 27.0593 22.0055C27.4536 22.5955 27.6641 23.2893 27.6641 23.999C27.6633 24.9501 27.2851 25.8622 26.6126 26.5348C25.9401 27.2075 25.0282 27.5859 24.0771 27.587Z" fill="white"/>
<path d="M28.5238 35.3699H19.4438C17.6327 35.3678 15.8965 34.6474 14.6159 33.3668C13.3353 32.0862 12.6149 30.35 12.6128 28.5389V19.4589C12.6149 17.6479 13.3353 15.9116 14.6159 14.631C15.8965 13.3504 17.6327 12.63 19.4438 12.6279H28.5238C30.3348 12.63 32.0711 13.3504 33.3517 14.631C34.6323 15.9116 35.3527 17.6479 35.3548 19.4589V28.5389C35.3527 30.35 34.6323 32.0862 33.3517 33.3668C32.0711 34.6474 30.3348 35.3678 28.5238 35.3699ZM19.4438 14.7699C18.2004 14.7723 17.0086 15.2673 16.1294 16.1465C15.2502 17.0257 14.7552 18.2175 14.7528 19.4609V28.5409C14.7552 29.7843 15.2502 30.9761 16.1294 31.8553C17.0086 32.7346 18.2004 33.2295 19.4438 33.2319H28.5238C29.7674 33.2298 30.9594 32.7349 31.8388 31.8557C32.7183 30.9764 33.2134 29.7845 33.2158 28.5409V19.4609C33.2134 18.2174 32.7183 17.0254 31.8388 16.1462C30.9594 15.2669 29.7674 14.772 28.5238 14.7699H19.4438Z" fill="white"/>
</g>
<defs>
<clipPath id="clip0_60_1496">
<rect width="48" height="48" fill="white"/>
</clipPath>
</defs>
</svg>
