<svg width="1469" height="409" viewBox="0 0 1469 409" fill="none" xmlns="http://www.w3.org/2000/svg">
<path d="M228.543 83.709H184.619C177.682 83.709 173.727 86.0177 171.087 90.3152L120.226 177.83L69.3651 90.3152C66.7249 86.0177 62.7704 83.709 55.8213 83.709H11.898C3.64599 83.709 0 87.3321 0 95.607V305.657C0 313.909 3.63456 317.543 11.898 317.543H57.4785C65.7306 317.543 69.3765 313.92 69.3765 305.657V198.312L111.654 269.323C113.3 271.963 115.62 274.283 120.237 274.283C124.866 274.283 127.175 271.974 128.821 269.323L171.098 198.312V305.645C171.098 313.897 174.721 317.532 182.996 317.532H228.577H211.901C205.958 317.532 202.244 314.377 202.015 309.177V309.143C201.981 308.434 202.038 307.68 202.129 306.903C202.278 305.783 202.552 304.594 202.986 303.337L240.463 188.722V95.5956C240.441 87.3435 236.806 83.709 228.543 83.709Z" fill="#B7262F"/>
<path d="M460.046 24.2424C461.349 24.2424 462.08 24.8939 462.08 26.2768V52.393C462.08 53.856 461.177 54.6789 460.286 55.2504C456.445 57.5363 450.411 59.3421 441.69 59.3421C424.066 59.3421 413.779 50.1986 413.779 29.6371C413.779 9.24702 424.134 0.0234375 442.41 0.0234375C449.748 0.0234375 455.634 1.9779 458.891 3.93233C460.114 4.58381 460.594 5.23529 460.114 6.46966L458.068 11.5214C457.577 12.7444 456.845 13.1559 455.291 12.5044C452.754 11.4415 448.845 10.1499 443.862 10.1499C430.889 10.1499 425.334 15.8532 425.334 29.6485C425.334 43.5924 431.038 49.2271 442.959 49.2271C446.387 49.2271 449.736 48.4842 451.691 47.5927V33.1573H442.799C441.404 33.1573 440.753 32.5859 440.753 31.2715V26.2882C440.753 24.9853 441.404 24.2538 442.799 24.2538L460.046 24.2424Z" fill="white"/>
<path d="M536.748 29.705C536.748 49.5237 527.285 59.3187 511.215 59.3187C495.305 59.3187 485.842 49.5237 485.842 29.705C485.842 9.87501 495.305 0 511.295 0C527.273 0 536.748 9.87501 536.748 29.705ZM525.067 29.705C525.067 16.5726 520.496 9.96647 511.284 9.96647C501.991 9.96647 497.408 16.5726 497.408 29.705C497.408 42.8374 501.98 49.3751 511.284 49.3751C520.507 49.3751 525.067 42.8489 525.067 29.705Z" fill="white"/>
<path d="M575.414 58.4269C574.031 58.4269 573.379 57.8555 572.877 56.4725L554.761 3.28003C554.269 1.88564 554.921 0.994141 556.315 0.994141H564.224C565.607 0.994141 566.259 1.64559 566.579 2.78853L576.374 33.2137L579.963 46.6775H580.123L583.62 33.2137L593.415 2.78853C593.747 1.64559 594.398 0.994141 595.77 0.994141H603.77C605.073 0.994141 605.725 1.89707 605.233 3.28003L587.198 56.4725C586.706 57.8669 585.975 58.4269 584.592 58.4269H575.414Z" fill="white"/>
<path d="M639.533 33.8651V48.6434H662.712C664.095 48.6434 664.746 49.2148 664.746 50.5978V56.3925C664.746 57.8555 664.095 58.4269 662.712 58.4269H630.321C628.858 58.4269 628.286 57.8555 628.286 56.3925V2.94854C628.286 1.56558 628.858 0.994141 630.241 0.994141H662.392C663.775 0.994141 664.426 1.56558 664.426 2.94854V8.74326C664.426 10.1262 663.775 10.7777 662.392 10.7777H639.544V24.4016H661.329C662.632 24.4016 663.283 25.1445 663.283 26.436V31.8307C663.283 33.1336 662.632 33.8651 661.329 33.8651H639.533Z" fill="white"/>
<path d="M709.378 0.994141C725.208 0.994141 733.208 6.62881 733.208 20.3327C733.208 30.2877 727.814 35.831 719.173 37.7168L733.048 55.9125C733.951 57.0554 733.46 58.4498 731.825 58.4498H724.076C722.613 58.4498 721.95 57.7983 721.219 56.8154L707.995 39.2712H700.406V56.4039C700.406 57.8669 699.754 58.4498 698.36 58.4498H691.091C689.628 58.4498 689.056 57.8783 689.056 56.4039V2.95997C689.056 1.57701 689.628 1.00556 691.091 1.00556L709.378 0.994141ZM709.138 29.7848C718.43 29.7848 721.779 26.7675 721.779 20.3213C721.779 13.3836 718.19 10.7777 709.206 10.7777H700.394V29.7848H709.138Z" fill="white"/>
<path d="M803.625 56.3925C803.625 57.8555 802.974 58.4269 801.671 58.4269H794.333C792.939 58.4269 792.379 58.0269 791.796 57.044L768.868 20.0812V56.3925C768.868 57.8555 768.297 58.4269 766.914 58.4269H759.896C758.433 58.4269 757.862 57.8555 757.862 56.3925V2.94854C757.862 1.56558 758.433 0.994141 759.896 0.994141H767.074C768.537 0.994141 769.12 1.32558 769.691 2.29708L792.619 39.3398V2.94854C792.619 1.56558 793.19 0.994141 794.573 0.994141H801.671C802.974 0.994141 803.625 1.56558 803.625 2.86854V56.3925Z" fill="white"/>
<path d="M879.094 29.705C879.094 49.5237 869.63 59.3187 853.56 59.3187C837.651 59.3187 828.187 49.5237 828.187 29.705C828.187 9.87501 837.651 0 853.64 0C869.619 0 879.094 9.87501 879.094 29.705ZM867.424 29.705C867.424 16.5726 862.852 9.96647 853.629 9.96647C844.337 9.96647 839.754 16.5726 839.754 29.705C839.754 42.8374 844.325 49.3751 853.629 49.3751C862.852 49.3751 867.424 42.8489 867.424 29.705Z" fill="white"/>
<path d="M944.195 58.4269C942.732 58.4269 942.161 57.8555 942.161 56.3925V2.94854C942.161 1.56558 942.732 0.994141 944.115 0.994141H959.865C978.301 0.994141 988.347 8.58324 988.347 29.1448C988.347 50.7578 978.312 58.4384 959.956 58.4384L944.195 58.4269ZM953.579 11.0977V48.3119H959.534C970.632 48.3119 976.746 44.4716 976.746 29.1333C976.746 14.858 970.632 11.0977 959.454 11.0977H953.579Z" fill="white"/>
<path d="M1058.1 29.625C1058.1 49.2151 1049.12 59.2387 1034.6 59.2387C1020.08 59.2387 1011.1 49.2036 1011.1 29.705C1011.1 10.035 1020.08 0 1034.6 0C1049.12 0 1058.1 10.035 1058.1 29.625ZM1046.75 29.625C1046.75 16.4926 1042.75 9.88646 1034.6 9.88646C1026.52 9.88646 1022.52 16.4926 1022.52 29.625C1022.52 42.8489 1026.52 49.4551 1034.6 49.4551C1042.76 49.4551 1046.75 42.8374 1046.75 29.625Z" fill="white"/>
<path d="M1174.42 50.061C1163.32 50.061 1157.14 57.1587 1157.14 68.7938C1157.14 74.6114 1158.95 76.063 1162.95 76.063H1170.59C1173.86 76.063 1175.32 75.1486 1175.87 72.2455L1176.05 71.1483C1176.42 69.1482 1178.05 68.4167 1180.6 68.4167C1182.96 68.4167 1185.88 68.9653 1188.97 70.234L1198.79 74.0514C1202.6 75.5143 1207.15 76.6001 1213.52 76.6001C1224.07 76.6001 1230.25 70.5997 1230.25 58.9531C1230.25 53.1355 1228.43 50.5868 1224.43 50.5868H1216.79C1213.52 50.5868 1212.06 51.5012 1211.51 54.4042L1211.32 55.5014C1210.97 57.3187 1209.14 58.2216 1206.59 58.2216C1204.24 58.2216 1201.13 57.4902 1198.4 56.4044L1188.58 52.5869C1184.78 51.1583 1180.24 50.061 1174.42 50.061Z" fill="#1AA2B9"/>
<path d="M271.3 370.805C271.3 370.21 271.632 369.936 272.169 369.936H296.708C297.348 369.936 297.622 370.21 297.622 370.805V373.342C297.622 373.936 297.348 374.256 296.708 374.256H286.775V406.887C286.775 407.527 286.501 407.802 285.861 407.802H283.061C282.467 407.802 282.147 407.539 282.147 406.887V374.256H272.214C271.62 374.256 271.3 373.925 271.3 373.342V370.805Z" fill="white"/>
<path d="M325.715 369.936C336.23 369.936 341.031 373.879 341.031 382.131C341.031 389.252 336.939 392.909 330.081 393.721L341.088 406.613C341.465 407.15 341.362 407.802 340.539 407.802H337.248C336.551 407.802 336.276 407.539 335.899 407.104L325.007 394.212H318.435V406.887C318.435 407.527 318.103 407.802 317.521 407.802H314.709C314.069 407.802 313.795 407.539 313.795 406.887V370.816C313.795 370.222 314.057 369.947 314.709 369.947L325.715 369.936ZM325.498 389.949C333.533 389.949 336.333 387.469 336.333 382.131C336.333 376.519 333.259 374.211 325.601 374.211H318.435V389.96L325.498 389.949Z" fill="white"/>
<path d="M372.633 369.936C373.444 369.936 373.604 370.268 373.822 370.85L387.354 406.887C387.514 407.367 387.251 407.802 386.657 407.802H383.525C382.931 407.802 382.714 407.539 382.497 406.99L379.102 397.984H362.552L359.158 406.99C358.952 407.527 358.781 407.802 358.186 407.802H355.009C354.414 407.802 354.14 407.367 354.312 406.887L367.844 370.862C368.05 370.279 368.221 369.947 369.033 369.947L372.633 369.936ZM377.651 393.778L370.907 374.576H370.804L364.004 393.778H377.651Z" fill="white"/>
<path d="M404.293 407.802C403.653 407.802 403.378 407.539 403.378 406.887V370.805C403.378 370.21 403.653 369.936 404.293 369.936H417.722C427.323 369.936 431.643 373.171 431.643 379.697C431.643 384.874 429.003 387.137 426.146 387.846C429.86 388.657 432.992 391.24 432.992 397.069C432.992 404.67 428.192 407.79 417.939 407.79L404.293 407.802ZM417.882 386.177C424.729 386.177 427.049 384.394 427.049 380.028C427.049 375.822 424.511 374.142 417.608 374.142H407.962V386.177H417.882ZM417.619 403.527C425.597 403.527 428.397 401.904 428.397 396.784C428.397 392.143 425.974 390.258 418.099 390.258H407.973V403.527H417.619Z" fill="white"/>
<path d="M465.669 369.936C466.48 369.936 466.64 370.268 466.857 370.85L480.39 406.887C480.55 407.367 480.287 407.802 479.692 407.802H476.561C475.967 407.802 475.749 407.539 475.532 406.99L472.138 397.984H455.588L452.193 406.99C451.988 407.527 451.816 407.802 451.222 407.802H448.044C447.45 407.802 447.176 407.367 447.347 406.887L460.88 370.862C461.085 370.279 461.257 369.947 462.068 369.947L465.669 369.936ZM470.686 393.778L463.943 374.576H463.84L457.039 393.778H470.686Z" fill="white"/>
<path d="M501.054 403.481H517.387C517.981 403.481 518.301 403.744 518.301 404.293V406.887C518.301 407.539 517.97 407.802 517.387 407.802H497.328C496.688 407.802 496.414 407.539 496.414 406.887V370.816C496.414 370.222 496.688 369.947 497.328 369.947H500.128C500.723 369.947 501.043 370.222 501.043 370.816L501.054 403.481Z" fill="white"/>
<path d="M559.138 390.589H539.777V406.876C539.777 407.528 539.446 407.79 538.863 407.79H536.051C535.411 407.79 535.137 407.528 535.137 406.876V370.793C535.137 370.199 535.4 369.925 536.051 369.925H538.863C539.457 369.925 539.777 370.188 539.777 370.793V386.28H559.138V370.793C559.138 370.199 559.47 369.925 560.053 369.925H562.91C563.505 369.925 563.779 370.188 563.779 370.793V406.876C563.779 407.528 563.516 407.79 562.91 407.79H560.053C559.459 407.79 559.138 407.528 559.138 406.876V390.589Z" fill="white"/>
<path d="M598.136 369.936C598.947 369.936 599.107 370.268 599.324 370.85L612.845 406.887C613.005 407.367 612.742 407.802 612.148 407.802H609.016C608.422 407.802 608.205 407.539 607.988 406.99L604.593 397.984H588.043L584.649 406.99C584.443 407.527 584.272 407.802 583.677 407.802H580.5C579.906 407.802 579.631 407.367 579.803 406.887L593.335 370.862C593.541 370.279 593.712 369.947 594.524 369.947L598.136 369.936ZM603.153 393.778L596.41 374.576H596.307L589.506 393.778H603.153Z" fill="white"/>
<path d="M657.569 406.875C657.569 407.527 657.237 407.79 656.654 407.79H653.694C653.054 407.79 652.78 407.584 652.46 407.092L633.43 377.639V406.875C633.43 407.527 633.167 407.79 632.561 407.79H629.806C629.155 407.79 628.892 407.527 628.892 406.875V370.793C628.892 370.198 629.155 369.924 629.806 369.924H632.721C633.361 369.924 633.693 370.084 634.013 370.564L653.043 400.063V370.781C653.043 370.187 653.305 369.913 653.911 369.913H656.666C657.26 369.913 657.58 370.175 657.58 370.724L657.569 406.875Z" fill="white"/>
<path d="M677.798 407.802C677.158 407.802 676.884 407.539 676.884 406.887V370.805C676.884 370.21 677.147 369.936 677.753 369.936H687.033C699.011 369.936 705.96 374.565 705.96 388.212C705.96 403.15 699 407.79 687.136 407.79H677.798V407.802ZM681.513 374.256V403.481H687.068C695.971 403.481 701.194 400.464 701.194 388.223C701.194 377.217 695.914 374.256 686.953 374.256H681.513Z" fill="white"/>
<path d="M754.204 388.874C754.204 401.389 748.432 408.338 737.872 408.338C727.402 408.338 721.642 401.378 721.642 388.874C721.642 376.37 727.414 369.353 737.929 369.353C748.444 369.353 754.204 376.359 754.204 388.874ZM749.461 388.874C749.461 379.056 745.689 373.559 737.917 373.559C730.157 373.559 726.374 379.056 726.374 388.874C726.374 398.692 730.157 404.132 737.917 404.132C745.701 404.132 749.461 398.692 749.461 388.874Z" fill="white"/>
<path d="M798.55 407.79C797.899 407.79 797.636 407.459 797.636 406.876V370.85C797.636 370.256 797.899 369.936 798.504 369.936H808.962C819.74 369.936 824.758 373.708 824.758 383.091C824.758 392.475 819.74 396.201 808.962 396.201H802.276V406.876C802.276 407.47 801.945 407.79 801.35 407.79H798.55ZM808.951 391.949C816.666 391.949 820.003 389.629 820.003 383.103C820.003 376.577 816.666 374.211 808.951 374.211H802.265V391.949H808.951Z" fill="white"/>
<path d="M855.069 369.936C855.88 369.936 856.041 370.268 856.258 370.85L869.79 406.887C869.95 407.367 869.687 407.802 869.093 407.802H865.961C865.367 407.802 865.15 407.539 864.933 406.99L861.538 397.984H844.988L841.594 406.99C841.388 407.527 841.217 407.802 840.622 407.802H837.445C836.85 407.802 836.576 407.367 836.748 406.887L850.28 370.862C850.486 370.279 850.657 369.947 851.469 369.947L855.069 369.936ZM860.087 393.778L853.343 374.576H853.24L846.44 393.778H860.087Z" fill="white"/>
<path d="M897.735 369.936C908.25 369.936 913.05 373.879 913.05 382.131C913.05 389.252 908.958 392.909 902.101 393.721L913.107 406.613C913.484 407.15 913.37 407.802 912.559 407.802H909.267C908.57 407.802 908.295 407.539 907.918 407.104L897.026 394.212H890.454V406.887C890.454 407.527 890.123 407.802 889.528 407.802H886.728C886.077 407.802 885.814 407.539 885.814 406.887V370.816C885.814 370.222 886.077 369.947 886.728 369.947L897.735 369.936ZM897.517 389.949C905.552 389.949 908.353 387.469 908.353 382.131C908.353 376.519 905.278 374.211 897.632 374.211H890.465V389.96L897.517 389.949Z" fill="white"/>
<path d="M944.653 369.936C945.464 369.936 945.624 370.268 945.841 370.85L959.374 406.887C959.534 407.367 959.271 407.802 958.677 407.802H955.545C954.951 407.802 954.733 407.539 954.516 406.99L951.122 397.984H934.572L931.177 406.99C930.972 407.527 930.8 407.802 930.206 407.802H927.017C926.423 407.802 926.148 407.367 926.32 406.887L939.852 370.862C940.058 370.279 940.23 369.947 941.041 369.947L944.653 369.936ZM949.67 393.778L942.927 374.576H942.824L936.023 393.778H949.67Z" fill="white"/>
<path d="M998.165 370.805C998.165 370.21 998.497 369.936 999.034 369.936H1023.57C1024.22 369.936 1024.5 370.21 1024.5 370.805V373.342C1024.5 373.936 1024.24 374.256 1023.57 374.256H1013.65V406.887C1013.65 407.527 1013.39 407.802 1012.74 407.802H1009.94C1009.34 407.802 1009.01 407.539 1009.01 406.887V374.256H999.091C998.497 374.256 998.177 373.925 998.177 373.342L998.165 370.805Z" fill="white"/>
<path d="M1069.71 388.874C1069.71 401.389 1063.95 408.338 1053.38 408.338C1042.91 408.338 1037.15 401.378 1037.15 388.874C1037.15 376.37 1042.92 369.353 1053.44 369.353C1063.95 369.353 1069.71 376.359 1069.71 388.874ZM1064.98 388.874C1064.98 379.056 1061.21 373.559 1053.44 373.559C1045.68 373.559 1041.89 379.056 1041.89 388.874C1041.89 398.692 1045.68 404.132 1053.44 404.132C1061.2 404.132 1064.98 398.692 1064.98 388.874Z" fill="white"/>
<path d="M1088.16 407.802C1087.52 407.802 1087.25 407.539 1087.25 406.887V370.805C1087.25 370.21 1087.51 369.936 1088.11 369.936H1097.4C1109.37 369.936 1116.32 374.565 1116.32 388.212C1116.32 403.15 1109.36 407.79 1097.5 407.79H1088.16V407.802ZM1091.89 374.256V403.481H1097.44C1106.34 403.481 1111.57 400.464 1111.57 388.223C1111.57 377.217 1106.29 374.256 1097.33 374.256H1091.89Z" fill="white"/>
<path d="M1164.59 388.874C1164.59 401.389 1158.82 408.338 1148.26 408.338C1137.8 408.338 1132.03 401.378 1132.03 388.874C1132.03 376.37 1137.8 369.353 1148.31 369.353C1158.82 369.353 1164.59 376.359 1164.59 388.874ZM1159.85 388.874C1159.85 379.056 1156.07 373.559 1148.3 373.559C1140.54 373.559 1136.76 379.056 1136.76 388.874C1136.76 398.692 1140.54 404.132 1148.3 404.132C1156.07 404.132 1159.85 398.692 1159.85 388.874Z" fill="white"/>
<path d="M1191.13 408.235C1186.76 408.235 1182.56 407.481 1180.5 406.51C1179.9 406.247 1179.63 406.018 1179.8 405.481L1180.67 403.058C1180.77 402.566 1181.05 402.189 1181.74 402.521C1183.74 403.332 1187.08 404.087 1190.97 404.087C1196.79 404.087 1200.57 402.029 1200.57 398.04C1200.57 393.732 1196.25 392.154 1191.4 390.223C1185.74 387.96 1180.68 385.902 1180.68 379.17C1180.68 373.124 1184.61 369.353 1193.68 369.353C1197.83 369.353 1200.96 370.05 1203 370.918C1203.54 371.124 1203.81 371.398 1203.65 371.947L1202.79 374.324C1202.63 374.804 1202.41 375.079 1201.65 374.804C1199.77 374.05 1197.45 373.57 1194 373.57C1187.79 373.57 1185.31 375.513 1185.31 379.182C1185.31 383.388 1189.25 384.519 1193.78 386.462C1199.6 388.943 1205.22 391.148 1205.22 398.166C1205.2 404.841 1199.7 408.235 1191.13 408.235Z" fill="white"/>
<path d="M1110.16 83.709H1061.94C1053.69 83.709 1050.06 87.3321 1050.06 95.607V167.281H997.217V95.607C997.217 87.3435 993.594 83.709 985.319 83.709H937.098C936.572 83.709 936.058 83.7204 935.578 83.7547C942.767 84.2004 945.944 87.8693 945.944 95.607V305.657C945.944 313.395 942.756 317.063 935.578 317.509C936.069 317.543 936.572 317.543 937.098 317.543H985.319C993.582 317.543 997.217 313.92 997.217 305.657V230.691H1050.06V305.657C1050.06 313.909 1053.68 317.543 1061.94 317.543H1110.16H1090.33C1082.41 317.543 1078.43 311.932 1081.41 303.348L1122.04 179.076V95.6184C1122.06 87.3435 1118.43 83.709 1110.16 83.709Z" fill="#42A944"/>
<path d="M703.538 83.709H644.093C635.51 83.709 632.195 87.3321 629.898 94.2812L573.791 265.871L588.581 290.273L588.592 290.284L596.101 302.674C601.05 310.594 597.747 317.532 589.495 317.532H570.465H616.743H620.663H732.5H777.2H758.376C750.124 317.532 746.489 313.909 746.489 305.645V182.173L717.744 94.2926C715.424 87.3435 712.121 83.709 703.538 83.709Z" fill="#224181"/>
<path d="M670.998 156.938L635.03 264.489C633.99 267.574 637.545 270.18 640.185 268.26L733.117 200.575C735.735 198.666 734.397 194.518 731.151 194.518H616.48C613.246 194.518 611.886 198.644 614.491 200.564L706.498 268.306C709.116 270.226 712.659 267.677 711.676 264.591L677.365 156.961C676.382 153.897 672.027 153.863 670.998 156.938Z" fill="white"/>
<path d="M473.886 192.037V188.745V173.304V143.153V139.862H497.671C518.484 139.862 526.736 147.782 526.736 164.309C526.736 164.881 526.702 165.406 526.69 165.955C526.713 166.515 526.736 167.018 526.736 167.601C526.736 173.487 525.684 178.265 523.399 181.991L523.387 181.968C520.553 186.597 515.821 189.614 508.803 191.054L508.689 191.077C507.432 191.328 506.094 191.523 504.7 191.683L504.563 191.694C503.957 191.763 503.34 191.808 502.7 191.854C502.506 191.866 502.311 191.877 502.128 191.888C501.614 191.923 501.077 191.946 500.54 191.968C500.334 191.98 500.128 191.991 499.911 192.003C499.18 192.026 498.448 192.037 497.671 192.037H473.886ZM498.654 83.709H490.733L490.722 83.7318H473.875V83.709H414.43C406.178 83.709 402.532 87.3321 402.532 95.607V226.908L427.529 303.337C430.5 311.92 426.546 317.532 418.602 317.532H414.419H461.977C470.24 317.532 473.875 313.909 473.875 305.645V248.19V248.167H490.722L490.733 248.19L524.736 307.943C528.359 314.217 532.988 317.521 541.251 317.521H570.442C564.499 317.521 560.784 314.366 560.556 309.166C560.476 307.428 560.784 305.474 561.538 303.325L573.791 265.86L557.252 238.589C557.252 238.589 590.569 224.771 596.753 187.34C597.838 180.802 598.616 173.716 598.696 165.944C598.604 158.172 597.884 151.063 596.753 144.548C590.272 107.596 557.252 93.3097 557.252 93.3097C541.651 86.5778 521.958 83.709 498.654 83.709Z" fill="#146495"/>
<path d="M573.779 265.872L561.527 303.337C560.784 305.486 560.476 307.44 560.544 309.178C560.773 314.389 564.499 317.544 570.431 317.544H589.449C597.713 317.544 601.004 310.606 596.055 302.686L588.558 290.296L588.546 290.285L573.779 265.872Z" fill="#283469"/>
<path d="M1223.43 83.709H1163.98C1155.4 83.709 1152.09 87.3321 1149.79 94.2812L1122.06 179.065V305.645C1122.06 313.897 1118.43 317.532 1110.16 317.532H1140.53C1148.79 317.532 1153.08 313.909 1155.07 306.64L1193.38 154.388H1194.31H1194.36L1213.31 230.348L1232.34 306.628C1232.72 307.988 1233.17 309.223 1233.7 310.331C1236.06 315.132 1240.16 317.532 1246.87 317.532H1297.07C1303.01 317.532 1306.73 314.377 1306.95 309.177C1306.95 309.04 1306.97 308.903 1306.97 308.766C1273.59 292.456 1253.67 257.448 1253.67 198.975C1253.67 183.099 1255.13 168.961 1257.94 156.434L1237.61 94.2698C1237.58 94.144 1237.52 94.0297 1237.49 93.904C1237.1 92.7839 1236.69 91.7438 1236.22 90.8066L1236.18 90.7152C1233.9 86.1092 1230.4 83.709 1223.43 83.709Z" fill="#F7BD13"/>
<path d="M1257.96 156.446C1255.16 168.961 1253.68 183.111 1253.68 198.986C1253.68 257.459 1273.59 292.467 1306.98 308.777C1307 307.143 1306.68 305.325 1305.99 303.348L1261.29 166.618L1257.96 156.446Z" fill="#F17820"/>
<path d="M1122.06 179.064L1081.42 303.336C1078.45 311.92 1082.41 317.532 1090.34 317.532H1110.17C1118.43 317.532 1122.07 313.897 1122.07 305.634L1122.06 179.064Z" fill="#5B9345"/>
<path d="M934.069 83.709H888.489C880.237 83.709 876.602 87.3321 876.602 95.607V196.666L818.472 90.9781C815.501 85.6977 812.529 83.709 804.265 83.709H758.365C750.101 83.709 746.467 87.3321 746.467 95.607V182.162L786.081 303.337C789.053 311.92 785.098 317.532 777.155 317.532H803.911C812.163 317.532 815.809 313.909 815.809 305.645V204.586L873.939 310.274C876.899 315.555 879.882 317.532 888.134 317.532H934.035C934.561 317.532 935.064 317.521 935.555 317.498C928.366 317.052 925.189 313.383 925.189 305.645V95.5956C925.189 87.8579 928.377 84.189 935.555 83.7433C935.098 83.7204 934.584 83.709 934.069 83.709Z" fill="#128E41"/>
<path d="M935.589 83.7549C928.4 84.2006 925.223 87.8695 925.223 95.6072V305.657C925.223 313.395 928.412 317.064 935.589 317.509C942.778 317.064 945.956 313.395 945.956 305.657V95.5958C945.956 87.8695 942.767 84.1892 935.589 83.7549Z" fill="#158E45"/>
<path d="M746.478 182.162V305.657C746.478 313.909 750.101 317.544 758.376 317.544H777.2C785.121 317.544 789.087 311.932 786.115 303.348L746.478 182.162Z" fill="#273B32"/>
<path d="M344.974 83.709H285.53C278.558 83.709 275.06 86.1091 272.763 90.7266L272.729 90.8181C272.272 91.7553 271.849 92.7953 271.46 93.9154C271.426 94.0412 271.369 94.1555 271.334 94.2812L247.687 166.618L240.452 188.734V305.668C240.452 313.92 236.818 317.555 228.554 317.555H262.077C268.786 317.555 272.877 315.155 275.243 310.354L275.289 310.24C275.803 309.166 276.249 307.966 276.603 306.651L314.583 154.4H314.64H315.566L353.878 306.651C355.866 313.909 360.152 317.543 368.416 317.543H414.419C406.167 317.543 402.521 313.92 402.521 305.657V236.315V226.908L359.147 94.2812C356.849 87.3435 353.558 83.709 344.974 83.709Z" fill="#D91C21"/>
<path d="M240.441 188.723L202.964 303.337C202.518 304.594 202.255 305.783 202.107 306.903C202.004 307.68 201.958 308.434 201.992 309.143V309.177C202.221 314.389 205.947 317.544 211.879 317.544H228.554C236.818 317.544 240.452 313.92 240.452 305.646L240.441 188.723Z" fill="#A82329"/>
<path d="M402.532 226.896V236.303V305.645C402.532 313.897 406.167 317.543 414.43 317.543H418.614C426.534 317.543 430.512 311.931 427.54 303.348L402.532 226.896Z" fill="#2F2C30"/>
<path d="M1361.35 258.419C1338.57 258.419 1326.67 242.246 1326.67 198.975C1326.67 155.714 1338.57 139.53 1361.35 139.53C1384.13 139.53 1396.02 155.703 1396.02 198.975C1396.03 242.246 1384.14 258.419 1361.35 258.419ZM1361.35 78.0972C1308.35 78.0972 1270.25 101.539 1257.96 156.446L1261.27 166.618L1305.98 303.337C1306.67 305.314 1306.99 307.131 1306.97 308.777C1322.42 316.321 1340.75 319.852 1361.33 319.852C1426.39 319.852 1469 284.524 1469 198.975C1469.01 113.437 1426.41 78.0972 1361.35 78.0972Z" fill="#F39020"/>
</svg>
