<svg width="22" height="22" viewBox="0 0 22 22" fill="none" xmlns="http://www.w3.org/2000/svg">
<rect width="22" height="22" rx="5" fill="#224282"/>
<path d="M5.904 11.748H8.292L7.128 8.208H7.092L5.904 11.748ZM6.42 6.552H7.788C7.956 6.552 8.076 6.648 8.148 6.828L10.944 14.664C10.968 14.76 10.968 14.844 10.932 14.904C10.884 14.976 10.824 15 10.728 15H9.564C9.384 15 9.264 14.916 9.216 14.736L8.664 13.164H5.544L4.992 14.736C4.932 14.916 4.824 15 4.656 15H3.492C3.384 15 3.312 14.976 3.264 14.904C3.216 14.844 3.216 14.76 3.264 14.664L6.06 6.828C6.12 6.648 6.24 6.552 6.42 6.552ZM17.4431 11.496H15.5111V13.44C15.5111 13.632 15.4151 13.716 15.2471 13.716H14.3471C14.1551 13.716 14.0711 13.632 14.0711 13.44V11.496H12.1511C11.9591 11.496 11.8751 11.412 11.8751 11.232V10.488C11.8751 10.308 11.9591 10.212 12.1511 10.212H14.0711V8.292C14.0711 8.112 14.1551 8.016 14.3471 8.016H15.2471C15.4151 8.016 15.5111 8.112 15.5111 8.292V10.212H17.4431C17.6231 10.212 17.7191 10.308 17.7191 10.488V11.232C17.7191 11.412 17.6231 11.496 17.4431 11.496Z" fill="white"/>
</svg>
