<svg width="22" height="22" viewBox="0 0 22 22" fill="none" xmlns="http://www.w3.org/2000/svg">
<rect width="22" height="22" rx="5" fill="#224282"/>
<path d="M7.904 11.748H10.292L9.128 8.208H9.092L7.904 11.748ZM8.42 6.552H9.788C9.956 6.552 10.076 6.648 10.148 6.828L12.944 14.664C12.968 14.76 12.968 14.844 12.932 14.904C12.884 14.976 12.824 15 12.728 15H11.564C11.384 15 11.264 14.916 11.216 14.736L10.664 13.164H7.544L6.992 14.736C6.932 14.916 6.824 15 6.656 15H5.492C5.384 15 5.312 14.976 5.264 14.904C5.216 14.844 5.216 14.76 5.264 14.664L8.06 6.828C8.12 6.648 8.24 6.552 8.42 6.552ZM17.0708 12.384H13.8068C13.6148 12.384 13.5308 12.3 13.5308 12.12V11.364C13.5308 11.196 13.6148 11.1 13.8068 11.1H17.0708C17.2508 11.1 17.3468 11.196 17.3468 11.364V12.12C17.3468 12.3 17.2508 12.384 17.0708 12.384Z" fill="white"/>
</svg>
