<svg width="48" height="48" viewBox="0 0 48 48" fill="none" xmlns="http://www.w3.org/2000/svg">
<g clip-path="url(#clip0_60_1500)">
<path fill-rule="evenodd" clip-rule="evenodd" d="M31.1161 14.3611C30.3161 14.7241 21.3041 18.9401 13.9641 22.3561C13.6881 22.4884 13.4537 22.694 13.2865 22.9504C13.1193 23.2068 13.0258 23.5042 13.0161 23.8101C13.0159 24.0752 13.1114 24.3314 13.285 24.5317C13.4586 24.7319 13.6987 24.8628 13.9611 24.9001C14.3971 24.9731 18.7611 25.6271 18.7611 25.6271L19.9931 32.8971L20.6471 29.6971L19.7021 24.8971L28.5691 18.3561L21.3011 26.3511L23.8451 29.2581C23.9901 29.4031 27.1161 33.0371 27.3341 33.2581C27.6971 33.6211 28.2791 34.3481 28.5701 34.3481C29.0791 34.3481 29.5881 33.6211 29.8061 32.5311C30.0241 31.5131 31.4781 24.4641 33.2951 15.0881C33.5161 14.0711 32.5671 13.6351 31.1161 14.3611Z" fill="white"/>
</g>
<defs>
<clipPath id="clip0_60_1500">
<rect width="48" height="48" fill="white"/>
</clipPath>
</defs>
</svg>
