<svg width="48" height="48" viewBox="0 0 48 48" fill="none" xmlns="http://www.w3.org/2000/svg">
<g clip-path="url(#clip0_60_1503)">
<path d="M36.547 16.4191C35.7203 16.7739 34.8516 17.0216 33.962 17.1561C34.378 17.0861 34.988 16.3331 35.233 16.0291C35.6154 15.5663 35.9065 15.0353 36.091 14.4641C36.114 14.4191 36.13 14.3641 36.086 14.3301C36.064 14.3207 36.04 14.3168 36.0162 14.3187C35.9923 14.3206 35.9693 14.3283 35.949 14.3411C34.9799 14.8584 33.9499 15.2524 32.883 15.5141C32.8462 15.5262 32.8067 15.5273 32.7692 15.5174C32.7317 15.5074 32.698 15.4868 32.672 15.4581C32.5899 15.36 32.5003 15.2684 32.404 15.1841C31.9612 14.8025 31.4598 14.4949 30.919 14.2731C30.1969 13.9813 29.4182 13.8562 28.641 13.9071C27.8861 13.958 27.1501 14.1658 26.48 14.5171C25.8082 14.8683 25.2152 15.3528 24.737 15.9411C24.2414 16.5513 23.886 17.2631 23.696 18.0261C23.5337 18.7487 23.515 19.4962 23.641 20.2261C23.658 20.3501 23.647 20.3661 23.536 20.3501C19.4797 19.9367 15.7235 18.0251 13.002 14.9891C12.879 14.8491 12.813 14.8491 12.712 15.0001C12.1649 16.0101 11.958 17.1696 12.1221 18.3065C12.2863 19.4433 12.8126 20.497 13.623 21.3111C13.829 21.5111 14.042 21.7021 14.27 21.8811C13.5616 21.8274 12.8709 21.6337 12.238 21.3111C12.115 21.2331 12.053 21.2781 12.038 21.4171C12.0304 21.6176 12.0415 21.8185 12.071 22.0171C12.1949 22.9653 12.5684 23.8636 13.1533 24.6201C13.7382 25.3767 14.5135 25.9644 15.4 26.3231C15.6166 26.417 15.843 26.4864 16.075 26.5301C15.4184 26.6611 14.7444 26.6818 14.081 26.5911C13.936 26.5631 13.881 26.6361 13.936 26.7751C14.2771 27.6683 14.841 28.4595 15.574 29.0735C16.307 29.6875 17.1848 30.1039 18.124 30.2831C18.314 30.3161 18.504 30.3161 18.694 30.3601C18.683 30.3781 18.671 30.3781 18.66 30.3941C18.19 31.1111 16.56 31.6451 15.8 31.9101C14.4091 32.4065 12.9272 32.5962 11.456 32.4661C11.222 32.4321 11.173 32.4341 11.11 32.4661C11.047 32.4981 11.102 32.5661 11.177 32.6221C11.477 32.8221 11.777 32.9911 12.077 33.1581C12.9985 33.6498 13.9709 34.0395 14.977 34.3201C20.196 35.7611 26.077 34.7021 29.993 30.8091C33.07 27.7521 34.149 23.5351 34.149 19.3091C34.149 19.1441 34.349 19.0531 34.459 18.9651C35.2402 18.3597 35.9288 17.6435 36.503 16.8391C36.5933 16.7228 36.6412 16.5792 36.639 16.4321V16.4101C36.652 16.3511 36.65 16.3721 36.547 16.4191Z" fill="white"/>
</g>
<defs>
<clipPath id="clip0_60_1503">
<rect width="48" height="48" fill="white"/>
</clipPath>
</defs>
</svg>
