<svg width="48" height="48" viewBox="0 0 48 48" fill="none" xmlns="http://www.w3.org/2000/svg">
<g clip-path="url(#clip0_60_1500)">
<path fill-rule="evenodd" clip-rule="evenodd" d="M32.6491 16.3422C31.5859 15.2785 30.3228 14.4356 28.9325 13.862C27.5422 13.2884 26.0522 12.9955 24.5482 13.0001C18.2366 13.0001 13.0986 18.1124 13.096 24.3973C13.0932 26.3986 13.6207 28.3649 14.6249 30.096L13 36L19.0709 34.4152C20.7513 35.3255 22.6324 35.802 24.5436 35.8013H24.5482C30.8594 35.8013 35.9969 30.6884 36 24.404C36.0038 22.9052 35.7095 21.4206 35.1342 20.0366C34.5589 18.6525 33.7142 17.3967 32.6491 16.3422ZM24.5482 33.8776H24.5441C22.8404 33.8781 21.1676 33.4222 19.6998 32.5572L19.3522 32.3518L15.7497 33.2924L16.7113 29.7967L16.4849 29.4373C15.5322 27.9291 15.0275 26.1813 15.0294 24.3973C15.0294 19.1746 19.3014 14.9253 24.5518 14.9253C27.0705 14.9208 29.4879 15.9169 31.2722 17.6946C33.0565 19.4722 34.0616 21.8858 34.0665 24.4045C34.0645 29.6278 29.7946 33.8776 24.5482 33.8776ZM29.7689 26.7831C29.483 26.6404 28.0747 25.9514 27.8139 25.8564C27.5531 25.7614 27.3606 25.7137 27.1701 25.9991C26.9797 26.2846 26.4308 26.9232 26.264 27.1158C26.0971 27.3083 25.9303 27.3293 25.6443 27.1866C25.3584 27.0439 24.4358 26.7435 23.3428 25.7732C22.4921 25.018 21.9181 24.0857 21.7513 23.8008C21.5844 23.5159 21.7333 23.3613 21.8765 23.2196C22.0054 23.0918 22.1625 22.8869 22.3057 22.7206C22.449 22.5543 22.4967 22.4352 22.5917 22.2452C22.6867 22.0553 22.6394 21.8889 22.5681 21.7467C22.4967 21.6045 21.9243 20.2024 21.6861 19.632C21.4535 19.0766 21.2179 19.152 21.0423 19.1433C20.8754 19.1351 20.6829 19.133 20.4935 19.133C20.3486 19.1368 20.2062 19.1704 20.0749 19.2317C19.9436 19.293 19.8264 19.3807 19.7306 19.4893C19.4682 19.7748 18.7289 20.4648 18.7289 21.8653C18.7289 23.2658 19.7557 24.6212 19.8974 24.8111C20.0391 25.0011 21.9151 27.8776 24.7854 29.1113C25.3184 29.3396 25.863 29.5397 26.417 29.711C27.1024 29.9276 27.7261 29.8973 28.219 29.8239C28.7688 29.7423 29.9132 29.1349 30.1509 28.4696C30.3886 27.8042 30.3891 27.2344 30.3177 27.1158C30.2464 26.9972 30.0554 26.9253 29.7689 26.7831Z" fill="white"/>
</g>
<defs>
<clipPath id="clip0_60_1500">
<rect width="48" height="48" fill="white"/>
</clipPath>
</defs>
</svg>
