<svg width="48" height="48" viewBox="0 0 48 48" fill="none" xmlns="http://www.w3.org/2000/svg">
<g clip-path="url(#clip0_60_1506)">
<path d="M38.2292 20.414C38.2292 18.7127 37.5533 17.081 36.3503 15.8779C35.1472 14.6749 33.5156 13.999 31.8142 13.999H15.4072C13.7058 13.999 12.0741 14.6749 10.8711 15.8779C9.66805 17.081 8.99219 18.7127 8.99219 20.414V28.048C8.99219 29.7494 9.66805 31.3811 10.8711 32.5841C12.0741 33.7872 13.7058 34.463 15.4072 34.463H31.8132C32.6556 34.463 33.4898 34.2971 34.2681 33.9747C35.0464 33.6523 35.7536 33.1798 36.3493 32.5841C36.945 31.9884 37.4175 31.2812 37.7399 30.5029C38.0623 29.7246 38.2282 28.8905 38.2282 28.048L38.2292 20.414ZM28.5812 24.803L21.2252 28.443C20.9362 28.599 19.9562 28.39 19.9562 28.062V20.591C19.9562 20.258 20.9442 20.05 21.2332 20.215L28.2752 24.046C28.5692 24.215 28.8792 24.642 28.5812 24.803Z" fill="white"/>
</g>
<defs>
<clipPath id="clip0_60_1506">
<rect width="48" height="48" fill="white"/>
</clipPath>
</defs>
</svg>
