<svg width="25" height="25" viewBox="0 0 25 25" fill="none" xmlns="http://www.w3.org/2000/svg">
<g clip-path="url(#clip0_400_841)">
<path d="M7.75384 13.3807H11.1037L9.47085 8.35227H9.42035L7.75384 13.3807ZM8.47768 6H10.3967C10.6324 6 10.8007 6.13636 10.9017 6.39205L14.8239 17.5227C14.8575 17.6591 14.8575 17.7784 14.807 17.8636C14.7397 17.9659 14.6555 18 14.5209 18H12.888C12.6355 18 12.4672 17.8807 12.3999 17.625L11.6255 15.392H7.24884L6.47451 17.625C6.39034 17.8807 6.23884 18 6.00317 18H4.37033C4.21883 18 4.11783 17.9659 4.0505 17.8636C3.98317 17.7784 3.98317 17.6591 4.0505 17.5227L7.97268 6.39205C8.05684 6.13636 8.22518 6 8.47768 6Z" fill="white"/>
<path d="M20.6128 14.2841H16.0342C15.7648 14.2841 15.647 14.1648 15.647 13.9091V12.8352C15.647 12.5966 15.7648 12.4602 16.0342 12.4602H20.6128C20.8653 12.4602 21 12.5966 21 12.8352V13.9091C21 14.1648 20.8653 14.2841 20.6128 14.2841Z" fill="white"/>
</g>
<defs>
<clipPath id="clip0_400_841">
<rect width="25" height="25" fill="white"/>
</clipPath>
</defs>
</svg>
