<svg width="25" height="25" viewBox="0 0 25 25" fill="none" xmlns="http://www.w3.org/2000/svg">
<g clip-path="url(#clip0_400_840)">
<path d="M5.80114 13.3807H9.19318L7.53977 8.35227H7.48864L5.80114 13.3807ZM6.53409 6H8.47727C8.71591 6 8.88636 6.13636 8.98864 6.39205L12.9602 17.5227C12.9943 17.6591 12.9943 17.7784 12.9432 17.8636C12.875 17.9659 12.7898 18 12.6534 18H11C10.7443 18 10.5739 17.8807 10.5057 17.625L9.72159 15.392H5.28977L4.50568 17.625C4.42045 17.8807 4.26705 18 4.02841 18H2.375C2.22159 18 2.11932 17.9659 2.05114 17.8636C1.98295 17.7784 1.98295 17.6591 2.05114 17.5227L6.02273 6.39205C6.10795 6.13636 6.27841 6 6.53409 6Z" fill="white"/>
<path d="M22.1919 13.0227H19.4476V15.7841C19.4476 16.0568 19.3113 16.1761 19.0726 16.1761H17.7942C17.5215 16.1761 17.4022 16.0568 17.4022 15.7841V13.0227H14.6749C14.4022 13.0227 14.2828 12.9034 14.2828 12.6477V11.5909C14.2828 11.3352 14.4022 11.1989 14.6749 11.1989H17.4022V8.47159C17.4022 8.21591 17.5215 8.07955 17.7942 8.07955H19.0726C19.3113 8.07955 19.4476 8.21591 19.4476 8.47159V11.1989H22.1919C22.4476 11.1989 22.584 11.3352 22.584 11.5909V12.6477C22.584 12.9034 22.4476 13.0227 22.1919 13.0227Z" fill="white"/>
</g>
<defs>
<clipPath id="clip0_400_840">
<rect width="25" height="25" fill="white"/>
</clipPath>
</defs>
</svg>
