<svg width="72" height="66" viewBox="0 0 72 66" fill="none" xmlns="http://www.w3.org/2000/svg">
<path d="M19.3555 20.6875V12.375C19.3555 10.734 20.062 9.16016 21.3195 7.99978C22.5771 6.8394 24.2827 6.1875 26.0612 6.1875H39.8569C41.0422 6.18767 42.1788 6.62212 43.017 7.39535L62.7515 25.6046C63.5895 26.3781 64.0603 27.4269 64.0605 28.5205V53.625C64.0605 55.266 63.354 56.8398 62.0964 58.0002C60.8389 59.1606 59.1332 59.8125 57.3547 59.8125H26.0612C24.2827 59.8125 22.5771 59.1606 21.3195 58.0002C20.062 56.8398 19.3555 55.266 19.3555 53.625V47.3125" stroke="#224282" stroke-width="5" stroke-linejoin="round"/>
<path d="M41.708 7.21875V22.6875C41.708 23.7815 42.179 24.8307 43.0174 25.6043C43.8558 26.3779 44.9928 26.8125 46.1785 26.8125H62.9429M34.5317 37.125H52.8843M30.5317 47.4375H52.8843" stroke="#224282" stroke-width="5" stroke-linecap="round" stroke-linejoin="round"/>
<path d="M32.8825 33.4412C32.8825 26.0205 26.8619 20 19.4412 20C12.0205 20 6 26.0205 6 33.4412C6 40.8619 12.0205 46.8825 19.4412 46.8825C26.8619 46.8825 32.8825 40.8619 32.8825 33.4412Z" stroke="#224282" stroke-width="4" stroke-miterlimit="10"/>
<path d="M12.7207 34.5613L16.7531 39.0417L24.7681 29.5" stroke="#224282" stroke-width="4" stroke-linecap="round" stroke-linejoin="round"/>
</svg>
