<svg width="73" height="66" viewBox="0 0 73 66" fill="none" xmlns="http://www.w3.org/2000/svg">
<path d="M19.8833 20.6875V12.375C19.8833 10.734 20.5898 9.16016 21.8474 7.99978C23.1049 6.8394 24.8106 6.1875 26.5891 6.1875H40.3848C41.57 6.18767 42.7066 6.62212 43.5448 7.39535L63.2793 25.6046C64.1173 26.3781 64.5882 27.4269 64.5883 28.5205V53.625C64.5883 55.266 63.8818 56.8398 62.6243 58.0002C61.3667 59.1606 59.6611 59.8125 57.8826 59.8125H26.5891C24.8106 59.8125 23.1049 59.1606 21.8474 58.0002C20.5898 56.8398 19.8833 55.266 19.8833 53.625V47.3125" stroke="#224282" stroke-width="5" stroke-linejoin="round"/>
<path d="M42.2358 7.21875V22.6875C42.2358 23.7815 42.7068 24.8307 43.5452 25.6043C44.3836 26.3779 45.5207 26.8125 46.7063 26.8125H63.4707M35.0596 37.125H53.4121M31.0596 47.4375H53.4121" stroke="#224282" stroke-width="5" stroke-linecap="round" stroke-linejoin="round"/>
<path d="M20.4412 20C13.0205 20 7 26.0205 7 33.4412C7 40.8619 13.0205 46.8825 20.4412 46.8825C27.8619 46.8825 33.8825 40.8619 33.8825 33.4412C33.8825 26.0205 27.8619 20 20.4412 20Z" stroke="#224282" stroke-width="4" stroke-miterlimit="10"/>
<path d="M20.4414 25.4804V34.5613H27.162" stroke="#224282" stroke-width="4" stroke-linecap="round" stroke-linejoin="round"/>
</svg>
