<svg width="72" height="66" viewBox="0 0 72 66" fill="none" xmlns="http://www.w3.org/2000/svg">
<g clip-path="url(#clip0_512_1311)">
<path d="M59 38.5769V25.5739C58.9998 24.6154 58.5786 23.6962 57.8288 23.0183L40.1712 7.05863C39.4213 6.38093 38.4043 6.00014 37.3438 6H25C23.4087 6 21.8826 6.57136 20.7574 7.58838C19.6321 8.60541 19 9.98479 19 11.4231V25.7337M45 53H25C23.4087 53 21.8826 52.4286 20.7574 51.4116C19.6321 50.3946 19 49.0152 19 47.5769V44.0443" stroke="#224282" stroke-width="5" stroke-linejoin="round"/>
<path d="M39 6V20.2105C39 21.2156 39.4214 22.1794 40.1716 22.8901C40.9217 23.6008 41.9391 24 43 24H58" stroke="#224282" stroke-width="5" stroke-linecap="round" stroke-linejoin="round"/>
<path d="M69.03 52.015C69.03 45.3817 63.6483 40 57.015 40C50.3817 40 45 45.3817 45 52.015C45 58.6483 50.3817 64.03 57.015 64.03C63.6483 64.03 69.03 58.6483 69.03 52.015Z" stroke="#224282" stroke-width="4" stroke-miterlimit="10"/>
<path d="M56.6561 46.3861L57.0153 54.0175L57.3739 46.3861C57.3761 46.3373 57.3684 46.2886 57.3511 46.2429C57.3339 46.1972 57.3075 46.1555 57.2735 46.1204C57.2396 46.0852 57.1989 46.0574 57.1539 46.0385C57.1088 46.0196 57.0604 46.0102 57.0116 46.0106C56.9633 46.0111 56.9157 46.0213 56.8714 46.0405C56.8272 46.0598 56.7873 46.0878 56.7541 46.1229C56.7209 46.1579 56.6952 46.1993 56.6783 46.2445C56.6615 46.2897 56.6539 46.3379 56.6561 46.3861Z" stroke="#224282" stroke-width="4" stroke-linecap="round" stroke-linejoin="round"/>
<path d="M57.0152 59.0181C56.7677 59.0181 56.5257 58.9447 56.3199 58.8072C56.1141 58.6697 55.9537 58.4742 55.8589 58.2455C55.7642 58.0168 55.7394 57.7652 55.7877 57.5224C55.836 57.2796 55.9552 57.0566 56.1302 56.8816C56.3053 56.7066 56.5283 56.5874 56.7711 56.5391C57.0138 56.4908 57.2655 56.5156 57.4942 56.6103C57.7229 56.705 57.9183 56.8654 58.0559 57.0712C58.1934 57.2771 58.2668 57.519 58.2668 57.7666C58.2668 58.0985 58.1349 58.4169 57.9002 58.6516C57.6655 58.8863 57.3472 59.0181 57.0152 59.0181Z" fill="#224282"/>
<path d="M9.958 38.138H6.066L5.422 40H3.364L6.878 30.214H9.16L12.674 40H10.602L9.958 38.138ZM9.426 36.57L8.012 32.482L6.598 36.57H9.426ZM22.4855 30.228L18.9015 40H16.5215L12.9375 30.228H15.0375L17.7255 37.998L20.3995 30.228H22.4855ZM25.3406 30.228V40H23.3806V30.228H25.3406ZM30.3711 40.098C29.6898 40.098 29.0738 39.9813 28.5231 39.748C27.9818 39.5147 27.5524 39.1787 27.2351 38.74C26.9178 38.3013 26.7544 37.7833 26.7451 37.186H28.8451C28.8731 37.5873 29.0131 37.9047 29.2651 38.138C29.5264 38.3713 29.8811 38.488 30.3291 38.488C30.7864 38.488 31.1458 38.3807 31.4071 38.166C31.6684 37.942 31.7991 37.6527 31.7991 37.298C31.7991 37.0087 31.7104 36.7707 31.5331 36.584C31.3558 36.3973 31.1318 36.2527 30.8611 36.15C30.5998 36.038 30.2358 35.9167 29.7691 35.786C29.1344 35.5993 28.6164 35.4173 28.2151 35.24C27.8231 35.0533 27.4824 34.778 27.1931 34.414C26.9131 34.0407 26.7731 33.546 26.7731 32.93C26.7731 32.3513 26.9178 31.8473 27.2071 31.418C27.4964 30.9887 27.9024 30.662 28.4251 30.438C28.9478 30.2047 29.5451 30.088 30.2171 30.088C31.2251 30.088 32.0418 30.3353 32.6671 30.83C33.3018 31.3153 33.6518 31.9967 33.7171 32.874H31.5611C31.5424 32.538 31.3978 32.2627 31.1271 32.048C30.8658 31.824 30.5158 31.712 30.0771 31.712C29.6944 31.712 29.3864 31.81 29.1531 32.006C28.9291 32.202 28.8171 32.4867 28.8171 32.86C28.8171 33.1213 28.9011 33.3407 29.0691 33.518C29.2464 33.686 29.4611 33.826 29.7131 33.938C29.9744 34.0407 30.3384 34.162 30.8051 34.302C31.4398 34.4887 31.9578 34.6753 32.3591 34.862C32.7604 35.0487 33.1058 35.3287 33.3951 35.702C33.6844 36.0753 33.8291 36.5653 33.8291 37.172C33.8291 37.6947 33.6938 38.18 33.4231 38.628C33.1524 39.076 32.7558 39.4353 32.2331 39.706C31.7104 39.9673 31.0898 40.098 30.3711 40.098ZM39.7843 40.098C38.8697 40.098 38.0297 39.8833 37.2643 39.454C36.499 39.0247 35.8923 38.432 35.4443 37.676C34.9963 36.9107 34.7723 36.0473 34.7723 35.086C34.7723 34.134 34.9963 33.28 35.4443 32.524C35.8923 31.7587 36.499 31.1613 37.2643 30.732C38.0297 30.3027 38.8697 30.088 39.7843 30.088C40.7083 30.088 41.5483 30.3027 42.3043 30.732C43.0697 31.1613 43.6717 31.7587 44.1103 32.524C44.5583 33.28 44.7823 34.134 44.7823 35.086C44.7823 36.0473 44.5583 36.9107 44.1103 37.676C43.6717 38.432 43.0697 39.0247 42.3043 39.454C41.539 39.8833 40.699 40.098 39.7843 40.098ZM39.7843 38.348C40.3723 38.348 40.8903 38.2173 41.3383 37.956C41.7863 37.6853 42.1363 37.3027 42.3883 36.808C42.6403 36.3133 42.7663 35.7393 42.7663 35.086C42.7663 34.4327 42.6403 33.8633 42.3883 33.378C42.1363 32.8833 41.7863 32.5053 41.3383 32.244C40.8903 31.9827 40.3723 31.852 39.7843 31.852C39.1963 31.852 38.6737 31.9827 38.2163 32.244C37.7683 32.5053 37.4183 32.8833 37.1663 33.378C36.9143 33.8633 36.7883 34.4327 36.7883 35.086C36.7883 35.7393 36.9143 36.3133 37.1663 36.808C37.4183 37.3027 37.7683 37.6853 38.2163 37.956C38.6737 38.2173 39.1963 38.348 39.7843 38.348Z" fill="#224282"/>
</g>
<defs>
<clipPath id="clip0_512_1311">
<rect width="71.5281" height="66" fill="white"/>
</clipPath>
</defs>
</svg>
