<svg width="72" height="66" viewBox="0 0 72 66" fill="none" xmlns="http://www.w3.org/2000/svg">
<path d="M49.0228 33.4618V53.7946C49.0228 56.6694 46.7691 59 43.9417 59H21.9313C19.0979 59 16.8442 56.6694 16.8442 53.7946V22.5625C16.8523 21.1844 17.4033 19.8651 18.3778 18.8906C19.3522 17.9162 20.6715 17.3652 22.0496 17.3571H33.1843C33.5697 17.3577 33.9512 17.435 34.3064 17.5845C34.6617 17.734 34.9836 17.9527 35.2535 18.2278L48.1663 31.3595C48.7157 31.9213 49.0232 32.676 49.0228 33.4618Z" stroke="#224282" stroke-width="5" stroke-linejoin="round"/>
<path d="M32.9336 17.3571V30.1339C32.944 31.0092 33.2964 31.8457 33.9153 32.4647C34.5343 33.0836 35.3708 33.436 36.2461 33.4464H49.0229" stroke="#224282" stroke-width="5" stroke-linecap="round" stroke-linejoin="round"/>
<path d="M30.0942 17.3571V11.2054C30.1023 9.8273 30.6533 8.50798 31.6278 7.53353C32.6022 6.55908 33.9215 6.00807 35.2996 6H46.4201C46.8077 6.00054 47.1912 6.07775 47.5488 6.22719C47.9064 6.37663 48.2308 6.59533 48.5035 6.87071L61.4163 20.0024C61.9653 20.5582 62.2731 21.3081 62.2728 22.0893V42.4375C62.2728 45.3123 60.0191 47.6429 57.1917 47.6429H49.9692" stroke="#224282" stroke-width="5" stroke-linejoin="round"/>
<path d="M46.1836 6V18.7768C46.194 19.6521 46.5464 20.4886 47.1653 21.1075C47.7843 21.7265 48.6208 22.0788 49.4961 22.0893H62.2729" stroke="#224282" stroke-width="5" stroke-linecap="round" stroke-linejoin="round"/>
</svg>
