<svg width="72" height="66" viewBox="0 0 72 66" fill="none" xmlns="http://www.w3.org/2000/svg">
<g clip-path="url(#clip0_512_1329)">
<path d="M59 38.5769V25.5739C58.9998 24.6154 58.5786 23.6962 57.8288 23.0183L40.1712 7.05863C39.4213 6.38093 38.4043 6.00014 37.3438 6H25C23.4087 6 21.8826 6.57136 20.7574 7.58838C19.6321 8.60541 19 9.98479 19 11.4231V25.7337M45 53H25C23.4087 53 21.8826 52.4286 20.7574 51.4116C19.6321 50.3946 19 49.0152 19 47.5769V44.0443" stroke="#224282" stroke-width="5" stroke-linejoin="round"/>
<path d="M39 6V20.2105C39 21.2156 39.4214 22.1794 40.1716 22.8901C40.9217 23.6008 41.9391 24 43 24H58" stroke="#224282" stroke-width="5" stroke-linecap="round" stroke-linejoin="round"/>
<path d="M69.5271 51.5406C69.5271 44.9076 64.1456 39.5261 57.5126 39.5261C50.8796 39.5261 45.498 44.9076 45.498 51.5406C45.498 58.1737 50.8796 63.5552 57.5126 63.5552C64.1456 63.5552 69.5271 58.1737 69.5271 51.5406Z" stroke="#224282" stroke-width="4" stroke-miterlimit="10"/>
<path d="M51.5054 52.5418L55.1097 56.5466L62.274 48.0177" stroke="#224282" stroke-width="4" stroke-linecap="round" stroke-linejoin="round"/>
<path d="M2.926 31.81V34.26H6.216V35.814H2.926V38.404H6.636V40H0.966V30.214H6.636V31.81H2.926ZM11.5532 30.228C12.5798 30.228 13.4805 30.4287 14.2552 30.83C15.0392 31.2313 15.6412 31.8053 16.0612 32.552C16.4905 33.2893 16.7052 34.148 16.7052 35.128C16.7052 36.108 16.4905 36.9667 16.0612 37.704C15.6412 38.432 15.0392 38.9967 14.2552 39.398C13.4805 39.7993 12.5798 40 11.5532 40H8.13717V30.228H11.5532ZM11.4832 38.334C12.5098 38.334 13.3032 38.054 13.8632 37.494C14.4232 36.934 14.7032 36.1453 14.7032 35.128C14.7032 34.1107 14.4232 33.3173 13.8632 32.748C13.3032 32.1693 12.5098 31.88 11.4832 31.88H10.0972V38.334H11.4832ZM19.8523 30.228V40H17.8923V30.228H19.8523ZM28.1588 30.228V31.81H25.5548V40H23.5948V31.81H20.9908V30.228H28.1588ZM35.3009 38.138H31.4089L30.7649 40H28.7069L32.2209 30.214H34.5029L38.0169 40H35.9449L35.3009 38.138ZM34.7689 36.57L33.3549 32.482L31.9409 36.57H34.7689ZM41.0104 38.446H44.2304V40H39.0504V30.228H41.0104V38.446Z" fill="#224282"/>
</g>
<defs>
<clipPath id="clip0_512_1329">
<rect width="71.5281" height="66" fill="white"/>
</clipPath>
</defs>
</svg>
