<svg width="46" height="37" viewBox="0 0 46 37" fill="none" xmlns="http://www.w3.org/2000/svg">
<path d="M3.48827 25.8134L42.185 25.8134C43.007 25.8134 43.6733 25.147 43.6733 24.325V3.48834C43.6733 2.66635 43.007 2 42.185 2L3.48827 2C2.66628 2 1.99993 2.66635 1.99993 3.48834V24.325C1.99993 25.147 2.66628 25.8134 3.48827 25.8134Z" stroke="#224282" stroke-width="3" stroke-linejoin="round"/>
<path d="M4.97656 30.2784H40.6966M7.95323 34.7434H37.72" stroke="#224282" stroke-width="3" stroke-linecap="round" stroke-linejoin="round"/>
<path d="M22.8367 21.3484C26.9466 21.3484 30.2784 18.0166 30.2784 13.9067C30.2784 9.79675 26.9466 6.465 22.8367 6.465C18.7268 6.465 15.395 9.79675 15.395 13.9067C15.395 18.0166 18.7268 21.3484 22.8367 21.3484Z" stroke="#224282" stroke-width="3" stroke-linecap="round" stroke-linejoin="round"/>
<path d="M43.6734 9.44168C41.6998 9.44168 39.8069 8.65765 38.4113 7.26206C37.0158 5.86648 36.2317 3.97366 36.2317 2M2 9.44168C2.97726 9.44168 3.94494 9.2492 4.84781 8.87522C5.75067 8.50124 6.57104 7.95309 7.26206 7.26206C7.95309 6.57104 8.50124 5.75067 8.87522 4.84781C9.2492 3.94494 9.44168 2.97726 9.44168 2M43.6734 18.3717C41.6998 18.3717 39.8069 19.1557 38.4113 20.5513C37.0158 21.9469 36.2317 23.8397 36.2317 25.8134M2 18.3717C2.97726 18.3717 3.94494 18.5642 4.84781 18.9382C5.75067 19.3121 6.57104 19.8603 7.26206 20.5513C7.95309 21.2423 8.50124 22.0627 8.87522 22.9656C9.2492 23.8684 9.44168 24.8361 9.44168 25.8134" stroke="#224282" stroke-width="3" stroke-linecap="round" stroke-linejoin="round"/>
</svg>
