<svg width="72" height="66" viewBox="0 0 72 66" fill="none" xmlns="http://www.w3.org/2000/svg">
<path d="M58.0605 28.5205V53.625C58.0605 55.266 57.354 56.8398 56.0964 58.0002C54.8389 59.1606 53.1332 59.8125 51.3547 59.8125H20.0612C18.2827 59.8125 16.5771 59.1606 15.3195 58.0002C14.062 56.8398 13.3555 55.266 13.3555 53.625V12.375C13.3555 10.734 14.062 9.16016 15.3195 7.99978C16.5771 6.8394 18.2827 6.1875 20.0612 6.1875H33.8569C35.0422 6.18767 36.1788 6.62212 37.017 7.39535L56.7515 25.6046C57.5895 26.3781 58.0603 27.4269 58.0605 28.5205Z" stroke="#224282" stroke-width="5" stroke-linejoin="round"/>
<path d="M35.708 7.21875V22.6875C35.708 23.7815 36.179 24.8307 37.0174 25.6043C37.8558 26.3779 38.9928 26.8125 40.1785 26.8125H56.9429M24.5317 37.125H46.8843M24.5317 47.4375H46.8843" stroke="#224282" stroke-width="5" stroke-linecap="round" stroke-linejoin="round"/>
</svg>
