<svg width="73" height="66" viewBox="0 0 73 66" fill="none" xmlns="http://www.w3.org/2000/svg">
<path d="M53.625 34.5V14.25C53.625 13.2145 52.7855 12.375 51.75 12.375H14.25C13.2145 12.375 12.375 13.2145 12.375 14.25V51.75C12.375 52.7855 13.2145 53.625 14.25 53.625H39.5" stroke="#224282" stroke-width="5" stroke-linecap="round" stroke-linejoin="round"/>
<path d="M44.25 8.625V16.125" stroke="#224282" stroke-width="5" stroke-linecap="round" stroke-linejoin="round"/>
<path d="M21.75 8.625V16.125" stroke="#224282" stroke-width="5" stroke-linecap="round" stroke-linejoin="round"/>
<path d="M12.375 23.625H53.625" stroke="#224282" stroke-width="5" stroke-linecap="round" stroke-linejoin="round"/>
<path d="M33 36.75C34.5533 36.75 35.8125 35.4908 35.8125 33.9375C35.8125 32.3842 34.5533 31.125 33 31.125C31.4467 31.125 30.1875 32.3842 30.1875 33.9375C30.1875 35.4908 31.4467 36.75 33 36.75Z" fill="#224282"/>
<path d="M22.6875 46.125C24.2408 46.125 25.5 44.8658 25.5 43.3125C25.5 41.7592 24.2408 40.5 22.6875 40.5C21.1342 40.5 19.875 41.7592 19.875 43.3125C19.875 44.8658 21.1342 46.125 22.6875 46.125Z" fill="#224282"/>
<path d="M22.8125 36.625C24.3658 36.625 25.625 35.3658 25.625 33.8125C25.625 32.2592 24.3658 31 22.8125 31C21.2592 31 20 32.2592 20 33.8125C20 35.3658 21.2592 36.625 22.8125 36.625Z" fill="#224282"/>
<path d="M33 46.125C34.5533 46.125 35.8125 44.8658 35.8125 43.3125C35.8125 41.7592 34.5533 40.5 33 40.5C31.4467 40.5 30.1875 41.7592 30.1875 43.3125C30.1875 44.8658 31.4467 46.125 33 46.125Z" fill="#224282"/>
<path d="M62 43.6611V56.7692C62 57.6261 61.6523 58.4478 61.0335 59.0537C60.4146 59.6596 59.5752 60 58.7 60H43.3C42.4248 60 41.5854 59.6596 40.9665 59.0537C40.3477 58.4478 40 57.6261 40 56.7692V35.2308C40 34.3739 40.3477 33.5522 40.9665 32.9463C41.5854 32.3404 42.4248 32 43.3 32H50.0891C50.6723 32.0001 51.2317 32.2269 51.6442 32.6307L61.3558 42.1386C61.7682 42.5424 61.9999 43.09 62 43.6611Z" stroke="#224282" stroke-width="4" stroke-linejoin="round"/>
<path d="M51.5172 33V40.6923C51.5172 41.2363 51.7498 41.7581 52.1636 42.1428C52.5775 42.5275 53.1388 42.7436 53.7241 42.7436H62M46 47.8718H56.0835M46 54H56.0835" stroke="#224282" stroke-width="4" stroke-linecap="round" stroke-linejoin="round"/>
</svg>
