<svg width="72" height="66" viewBox="0 0 72 66" fill="none" xmlns="http://www.w3.org/2000/svg">
<path d="M30.4375 61H64.5625C65.2873 61 65.8749 60.4123 65.8749 59.6874V41.3125C65.8749 40.5876 65.2873 40 64.5625 40H30.4375C29.7126 40 29.125 40.5876 29.125 41.3125V59.6874C29.125 60.4123 29.7126 61 30.4375 61Z" stroke="#224282" stroke-width="3" stroke-linejoin="round"/>
<path d="M47.5 57.0625C51.1244 57.0625 54.0625 54.1244 54.0625 50.5C54.0625 46.8756 51.1244 43.9375 47.5 43.9375C43.8757 43.9375 40.9375 46.8756 40.9375 50.5C40.9375 54.1244 43.8757 57.0625 47.5 57.0625Z" stroke="#224282" stroke-width="3" stroke-linecap="round" stroke-linejoin="round"/>
<path d="M65.875 46.5625C64.1345 46.5625 62.4653 45.8711 61.2345 44.6404C60.0039 43.4097 59.3124 41.7405 59.3124 40M29.125 46.5625C29.9868 46.5625 30.8402 46.3928 31.6364 46.063C32.4326 45.7332 33.156 45.2498 33.7654 44.6404C34.3748 44.031 34.8582 43.3076 35.188 42.5114C35.5178 41.7152 35.6875 40.8618 35.6875 40M65.875 54.4375C64.1345 54.4375 62.4653 55.1289 61.2345 56.3596C60.0039 57.5903 59.3124 59.2595 59.3124 61M29.125 54.4375C29.9868 54.4375 30.8402 54.6072 31.6364 54.9371C32.4326 55.2668 33.156 55.7502 33.7654 56.3596C34.3748 56.9689 34.8582 57.6924 35.188 58.4886C35.5178 59.2848 35.6875 60.1382 35.6875 61" stroke="#224282" stroke-width="3" stroke-linecap="round" stroke-linejoin="round"/>
<path d="M39 9.54102H42.6C44.0322 9.54102 45.4057 10.115 46.4184 11.1366C47.4311 12.1582 48 13.5439 48 14.9887V41M28.6 56.7541H17.4C15.9678 56.7541 14.5943 56.1802 13.5816 55.1586C12.5689 54.1369 12 52.7513 12 51.3065V14.9887C12 13.5439 12.5689 12.1582 13.5816 11.1366C14.5943 10.115 15.9678 9.54102 17.4 9.54102H21" stroke="#224282" stroke-width="5" stroke-linejoin="round"/>
<path d="M36.1598 6H23.8404C22.1902 6 20.8525 7.29454 20.8525 8.89143V10.1905C20.8525 11.7874 22.1902 13.082 23.8404 13.082H36.1598C37.8099 13.082 39.1476 11.7874 39.1476 10.1905V8.89143C39.1476 7.29454 37.8099 6 36.1598 6Z" stroke="#224282" stroke-width="5" stroke-linejoin="round"/>
<path d="M22.6635 28.0973H18.7305L18.0797 30H16L19.5511 20H21.8571L25.4082 30H23.3143L22.6635 28.0973ZM22.1259 26.495L20.697 22.3176L19.2681 26.495H22.1259Z" fill="#224282"/>
<path d="M31.8287 30L29.6499 26.1087H28.7162V30H26.7355V20.0143H30.4422C31.2062 20.0143 31.857 20.1526 32.3946 20.4292C32.9322 20.6962 33.333 21.0634 33.5971 21.5308C33.8706 21.9886 34.0074 22.5036 34.0074 23.0758C34.0074 23.7339 33.8188 24.33 33.4415 24.8641C33.0642 25.3887 32.503 25.7511 31.7579 25.9514L34.1206 30H31.8287ZM28.7162 24.6066H30.3715C30.9091 24.6066 31.3099 24.4778 31.574 24.2203C31.8381 23.9533 31.9701 23.5861 31.9701 23.1187C31.9701 22.6609 31.8381 22.3081 31.574 22.0601C31.3099 21.8026 30.9091 21.6738 30.3715 21.6738H28.7162V24.6066Z" fill="#224282"/>
<path d="M43 23.1044C43 23.6385 42.8727 24.1392 42.618 24.6066C42.3728 25.0739 41.9814 25.4506 41.4438 25.7368C40.9156 26.0229 40.2459 26.166 39.4348 26.166H37.7795V30H35.7988V20.0143H39.4348C40.1988 20.0143 40.8496 20.1478 41.3872 20.4149C41.9248 20.6819 42.3256 21.0491 42.5897 21.5165C42.8632 21.9838 43 22.5131 43 23.1044ZM39.3499 24.5494C39.897 24.5494 40.3025 24.4254 40.5666 24.1774C40.8307 23.9199 40.9627 23.5622 40.9627 23.1044C40.9627 22.1316 40.4251 21.6452 39.3499 21.6452H37.7795V24.5494H39.3499Z" fill="#224282"/>
</svg>
