<svg width="72" height="66" viewBox="0 0 72 66" fill="none" xmlns="http://www.w3.org/2000/svg">
<g clip-path="url(#clip0_512_1337)">
<path d="M59 38.5769V25.5739C58.9998 24.6154 58.5786 23.6962 57.8288 23.0183L40.1712 7.05863C39.4213 6.38093 38.4043 6.00014 37.3438 6H25C23.4087 6 21.8826 6.57136 20.7574 7.58838C19.6321 8.60541 19 9.98479 19 11.4231V25.7337M45 53H25C23.4087 53 21.8826 52.4286 20.7574 51.4116C19.6321 50.3946 19 49.0152 19 47.5769V41.0443" stroke="#224282" stroke-width="5" stroke-linejoin="round"/>
<path d="M39 6V20.2105C39 21.2156 39.4214 22.1794 40.1716 22.8901C40.9217 23.6008 41.9391 24 43 24H58" stroke="#224282" stroke-width="5" stroke-linecap="round" stroke-linejoin="round"/>
<path d="M69.5271 51.5406C69.5271 44.9076 64.1456 39.5261 57.5126 39.5261C50.8796 39.5261 45.498 44.9076 45.498 51.5406C45.498 58.1737 50.8796 63.5552 57.5126 63.5552C64.1456 63.5552 69.5271 58.1737 69.5271 51.5406Z" stroke="#224282" stroke-width="4" stroke-miterlimit="10"/>
<path d="M51.5054 52.5418L55.1097 56.5466L62.274 48.0177" stroke="#224282" stroke-width="4" stroke-linecap="round" stroke-linejoin="round"/>
<path d="M4.29 37L2.75 34.28H2.09V37H0.69V30.02H3.31C3.85 30.02 4.31 30.1167 4.69 30.31C5.07 30.4967 5.35333 30.7533 5.54 31.08C5.73333 31.4 5.83 31.76 5.83 32.16C5.83 32.62 5.69667 33.0367 5.43 33.41C5.16333 33.7767 4.76667 34.03 4.24 34.17L5.91 37H4.29ZM2.09 33.23H3.26C3.64 33.23 3.92333 33.14 4.11 32.96C4.29667 32.7733 4.39 32.5167 4.39 32.19C4.39 31.87 4.29667 31.6233 4.11 31.45C3.92333 31.27 3.64 31.18 3.26 31.18H2.09V33.23ZM8.09625 31.15V32.9H10.4463V34.01H8.09625V35.86H10.7463V37H6.69625V30.01H10.7463V31.15H8.09625ZM14.0285 37.07C13.5418 37.07 13.1018 36.9867 12.7085 36.82C12.3218 36.6533 12.0152 36.4133 11.7885 36.1C11.5618 35.7867 11.4452 35.4167 11.4385 34.99H12.9385C12.9585 35.2767 13.0585 35.5033 13.2385 35.67C13.4252 35.8367 13.6785 35.92 13.9985 35.92C14.3252 35.92 14.5818 35.8433 14.7685 35.69C14.9552 35.53 15.0485 35.3233 15.0485 35.07C15.0485 34.8633 14.9852 34.6933 14.8585 34.56C14.7318 34.4267 14.5718 34.3233 14.3785 34.25C14.1918 34.17 13.9318 34.0833 13.5985 33.99C13.1452 33.8567 12.7752 33.7267 12.4885 33.6C12.2085 33.4667 11.9652 33.27 11.7585 33.01C11.5585 32.7433 11.4585 32.39 11.4585 31.95C11.4585 31.5367 11.5618 31.1767 11.7685 30.87C11.9752 30.5633 12.2652 30.33 12.6385 30.17C13.0118 30.0033 13.4385 29.92 13.9185 29.92C14.6385 29.92 15.2218 30.0967 15.6685 30.45C16.1218 30.7967 16.3718 31.2833 16.4185 31.91H14.8785C14.8652 31.67 14.7618 31.4733 14.5685 31.32C14.3818 31.16 14.1318 31.08 13.8185 31.08C13.5452 31.08 13.3252 31.15 13.1585 31.29C12.9985 31.43 12.9185 31.6333 12.9185 31.9C12.9185 32.0867 12.9785 32.2433 13.0985 32.37C13.2252 32.49 13.3785 32.59 13.5585 32.67C13.7452 32.7433 14.0052 32.83 14.3385 32.93C14.7918 33.0633 15.1618 33.1967 15.4485 33.33C15.7352 33.4633 15.9818 33.6633 16.1885 33.93C16.3952 34.1967 16.4985 34.5467 16.4985 34.98C16.4985 35.3533 16.4018 35.7 16.2085 36.02C16.0152 36.34 15.7318 36.5967 15.3585 36.79C14.9852 36.9767 14.5418 37.07 14.0285 37.07ZM18.6923 30.02V34.34C18.6923 34.8133 18.8156 35.1767 19.0623 35.43C19.3089 35.6767 19.6556 35.8 20.1023 35.8C20.5556 35.8 20.9056 35.6767 21.1523 35.43C21.3989 35.1767 21.5223 34.8133 21.5223 34.34V30.02H22.9323V34.33C22.9323 34.9233 22.8023 35.4267 22.5423 35.84C22.2889 36.2467 21.9456 36.5533 21.5123 36.76C21.0856 36.9667 20.6089 37.07 20.0823 37.07C19.5623 37.07 19.0889 36.9667 18.6623 36.76C18.2423 36.5533 17.9089 36.2467 17.6623 35.84C17.4156 35.4267 17.2923 34.9233 17.2923 34.33V30.02H18.6923ZM25.2849 35.89H27.5849V37H23.8849V30.02H25.2849V35.89ZM32.8248 30.02V31.15H30.9648V37H29.5648V31.15H27.7048V30.02H32.8248ZM37.7262 35.67H34.9462L34.4862 37H33.0162L35.5262 30.01H37.1562L39.6662 37H38.1862L37.7262 35.67ZM37.3462 34.55L36.3362 31.63L35.3262 34.55H37.3462ZM42.6445 30.02C43.3778 30.02 44.0211 30.1633 44.5745 30.45C45.1345 30.7367 45.5645 31.1467 45.8645 31.68C46.1711 32.2067 46.3245 32.82 46.3245 33.52C46.3245 34.22 46.1711 34.8333 45.8645 35.36C45.5645 35.88 45.1345 36.2833 44.5745 36.57C44.0211 36.8567 43.3778 37 42.6445 37H40.2045V30.02H42.6445ZM42.5945 35.81C43.3278 35.81 43.8945 35.61 44.2945 35.21C44.6945 34.81 44.8945 34.2467 44.8945 33.52C44.8945 32.7933 44.6945 32.2267 44.2945 31.82C43.8945 31.4067 43.3278 31.2 42.5945 31.2H41.6045V35.81H42.5945ZM50.2124 37.07C49.5591 37.07 48.9591 36.9167 48.4124 36.61C47.8658 36.3033 47.4324 35.88 47.1124 35.34C46.7924 34.7933 46.6324 34.1767 46.6324 33.49C46.6324 32.81 46.7924 32.2 47.1124 31.66C47.4324 31.1133 47.8658 30.6867 48.4124 30.38C48.9591 30.0733 49.5591 29.92 50.2124 29.92C50.8724 29.92 51.4724 30.0733 52.0124 30.38C52.5591 30.6867 52.9891 31.1133 53.3024 31.66C53.6224 32.2 53.7824 32.81 53.7824 33.49C53.7824 34.1767 53.6224 34.7933 53.3024 35.34C52.9891 35.88 52.5591 36.3033 52.0124 36.61C51.4658 36.9167 50.8658 37.07 50.2124 37.07ZM50.2124 35.82C50.6324 35.82 51.0024 35.7267 51.3224 35.54C51.6424 35.3467 51.8924 35.0733 52.0724 34.72C52.2524 34.3667 52.3424 33.9567 52.3424 33.49C52.3424 33.0233 52.2524 32.6167 52.0724 32.27C51.8924 31.9167 51.6424 31.6467 51.3224 31.46C51.0024 31.2733 50.6324 31.18 50.2124 31.18C49.7924 31.18 49.4191 31.2733 49.0924 31.46C48.7724 31.6467 48.5224 31.9167 48.3424 32.27C48.1624 32.6167 48.0724 33.0233 48.0724 33.49C48.0724 33.9567 48.1624 34.3667 48.3424 34.72C48.5224 35.0733 48.7724 35.3467 49.0924 35.54C49.4191 35.7267 49.7924 35.82 50.2124 35.82Z" fill="#224282"/>
</g>
<defs>
<clipPath id="clip0_512_1337">
<rect width="71.5281" height="66" fill="white"/>
</clipPath>
</defs>
</svg>
