<svg width="72" height="66" viewBox="0 0 72 66" fill="none" xmlns="http://www.w3.org/2000/svg">
<g clip-path="url(#clip0_507_830)">
<path d="M63.8579 15.2015L42.432 34.8419L31.7191 25.0217L23.0059 17.0346" stroke="#224282" stroke-width="5" stroke-linecap="round" stroke-linejoin="round"/>
<path d="M23.0056 15.2015H63.8577V45.5549C63.8577 46.0284 63.6696 46.4826 63.3347 46.8174C62.9999 47.1523 62.5457 47.3404 62.0722 47.3404H43.5745M21.0059 40.984V26.1287" stroke="#224282" stroke-width="5" stroke-linecap="round" stroke-linejoin="round"/>
<path d="M38.5376 31.271L25.2915 43.4133" stroke="#224282" stroke-width="5" stroke-linecap="round" stroke-linejoin="round"/>
<path d="M63.3062 46.836L46.3262 31.271" stroke="#224282" stroke-width="5" stroke-linecap="round" stroke-linejoin="round"/>
<path d="M31.8916 40.2587C32.1842 40.1498 32.4992 40.1157 32.8083 40.1593C33.1174 40.2029 33.4107 40.323 33.6616 40.5085L43.2952 47.8643C43.6216 48.1047 43.8614 48.4444 43.9787 48.8324C44.0959 49.2205 44.0844 49.6361 43.9457 50.017C42.9678 52.5846 41.0906 54.7096 38.6634 55.9968C36.2361 57.2841 33.4239 57.646 30.7498 57.0152C22.5143 55.0792 15.3852 49.9509 10.9308 42.7586C6.47639 35.5662 5.06157 26.899 6.99758 18.6635C7.62427 15.9884 9.20119 13.632 11.4351 12.0325C13.6689 10.433 16.4077 9.69923 19.1421 9.96769C19.5449 10.0133 19.9221 10.1881 20.2173 10.4659C20.5125 10.7438 20.7097 11.1098 20.7795 11.5091L23.0705 23.4201C23.124 23.7248 23.1013 24.038 23.0045 24.3317C22.9077 24.6255 22.7398 24.8908 22.5157 25.104L16.2725 29.7587C16.0381 29.9791 15.8648 30.2567 15.7697 30.5642C15.6746 30.8716 15.661 31.1985 15.73 31.5129C16.7096 35.8223 19.7772 40.7093 23.2145 43.4907C23.4668 43.6923 23.7673 43.8247 24.0864 43.8748C24.4054 43.9249 24.732 43.8909 25.034 43.7762L31.8916 40.2587Z" stroke="#224282" stroke-width="5" stroke-linecap="round" stroke-linejoin="round"/>
</g>
<defs>
<clipPath id="clip0_507_830">
<rect width="71.5281" height="66" fill="white"/>
</clipPath>
</defs>
</svg>
