<svg width="48" height="35" viewBox="0 0 48 35" fill="none" xmlns="http://www.w3.org/2000/svg">
<path d="M38.2629 9.05114C37.9788 13.034 35.0528 16.1023 31.8621 16.1023C28.6715 16.1023 25.7407 13.035 25.4614 9.05114C25.1704 4.90761 28.0188 2 31.8621 2C35.7055 2 38.5539 4.98302 38.2629 9.05114Z" stroke="#224282" stroke-width="3" stroke-linecap="round" stroke-linejoin="round"/>
<path d="M31.8624 22.3699C25.5421 22.3699 19.4643 25.54 17.9417 31.7137C17.74 32.5304 18.2472 33.3384 19.0783 33.3384H44.6475C45.4787 33.3384 45.983 32.5304 45.7841 31.7137C44.2615 25.4411 38.1837 22.3699 31.8624 22.3699Z" stroke="#224282" stroke-width="3" stroke-miterlimit="10"/>
<path d="M18.6726 10.8081C18.4457 13.9889 16.0812 16.494 13.5326 16.494C10.9839 16.494 8.6156 13.9899 8.39254 10.8081C8.16076 7.49892 10.4621 5.13385 13.5326 5.13385C16.603 5.13385 18.9044 7.55964 18.6726 10.8081Z" stroke="#224282" stroke-width="3" stroke-linecap="round" stroke-linejoin="round"/>
<path d="M19.2547 22.5658C17.5041 21.7559 15.5761 21.4445 13.5327 21.4445C8.4897 21.4445 3.63092 23.976 2.4138 28.9069C2.25378 29.5591 2.65916 30.2045 3.32252 30.2045H14.2116" stroke="#224282" stroke-width="3" stroke-miterlimit="10" stroke-linecap="round"/>
</svg>
