<svg width="72" height="66" viewBox="0 0 72 66" fill="none" xmlns="http://www.w3.org/2000/svg">
<g clip-path="url(#clip0_346_851)">
<path d="M55.8623 28.3125C59.9095 28.3125 63.1904 25.0316 63.1904 20.9844C63.1904 16.9372 59.9095 13.6562 55.8623 13.6562C51.8151 13.6562 48.5342 16.9372 48.5342 20.9844C48.5342 25.0316 51.8151 28.3125 55.8623 28.3125Z" stroke="#224282" stroke-width="5" stroke-linecap="round" stroke-linejoin="round"/>
<path d="M15.0342 53.4375H6.65918C6.10388 53.4375 5.57133 53.2169 5.17867 52.8243C4.78602 52.4316 4.56543 51.899 4.56543 51.3438V40.875C4.56543 40.3197 4.78602 39.7871 5.17867 39.3945C5.57133 39.0018 6.10388 38.7812 6.65918 38.7812H15.0342" stroke="#224282" stroke-width="5" stroke-linecap="round" stroke-linejoin="round"/>
<path d="M31.7842 40.875H40.1592L57.6943 36.8419C58.339 36.6653 59.0158 36.6396 59.672 36.7671C60.3282 36.8945 60.9461 37.1715 61.4778 37.5766C62.0096 37.9818 62.4407 38.504 62.7377 39.1029C63.0347 39.7017 63.1897 40.361 63.1904 41.0294C63.1908 41.8365 62.9661 42.6278 62.5417 43.3143C62.1173 44.0008 61.51 44.5555 60.7879 44.916L50.6279 49.25L33.8779 53.4375H15.0342V38.7813L21.5771 32.2383C22.162 31.6555 22.8559 31.1937 23.6194 30.8794C24.3828 30.565 25.2007 30.4042 26.0264 30.4063H39.1123C40.5005 30.4063 41.8319 30.9577 42.8136 31.9394C43.7952 32.921 44.3467 34.2524 44.3467 35.6406C44.3467 37.0289 43.7952 38.3603 42.8136 39.3419C41.8319 40.3235 40.5005 40.875 39.1123 40.875H31.7842Z" stroke="#224282" stroke-width="5" stroke-linecap="round" stroke-linejoin="round"/>
<path d="M48.5345 21.3221C47.1122 21.9948 45.5112 22.1918 43.9683 21.8841C42.4253 21.5765 41.0224 20.7804 39.9669 19.6136C38.9114 18.4468 38.2595 16.9714 38.1075 15.4054C37.9555 13.8394 38.3116 12.2661 39.123 10.9182C39.9344 9.57025 41.1581 8.51923 42.6131 7.92059C44.068 7.32195 45.677 7.20747 47.2021 7.59408C48.7272 7.9807 50.0874 8.84788 51.0814 10.0674C52.0755 11.2869 52.6507 12.7939 52.722 14.3656" stroke="#224282" stroke-width="5" stroke-linecap="round" stroke-linejoin="round"/>
</g>
<defs>
<clipPath id="clip0_346_851">
<rect width="71.5281" height="66" fill="white"/>
</clipPath>
</defs>
</svg>
