<svg width="42" height="41" viewBox="0 0 42 41" fill="none" xmlns="http://www.w3.org/2000/svg">
<path d="M37.1244 34.2633L29.4984 26.6373C31.3344 24.1931 32.3255 21.2181 32.3222 18.1611C32.3222 10.3527 25.9695 4 18.1611 4C10.3527 4 4 10.3527 4 18.1611C4 25.9695 10.3527 32.3222 18.1611 32.3222C21.2181 32.3255 24.1931 31.3344 26.6373 29.4984L34.2633 37.1244C34.6494 37.4695 35.1529 37.6537 35.6704 37.6392C36.188 37.6247 36.6804 37.4127 37.0465 37.0465C37.4127 36.6804 37.6247 36.188 37.6392 35.6704C37.6537 35.1529 37.4695 34.6494 37.1244 34.2633ZM8.04603 18.1611C8.04603 16.1605 8.63927 14.2049 9.75072 12.5415C10.8622 10.8781 12.4419 9.58158 14.2902 8.81599C16.1385 8.05041 18.1723 7.85009 20.1344 8.24039C22.0966 8.63068 23.8989 9.59404 25.3135 11.0087C26.7281 12.4233 27.6915 14.2256 28.0818 16.1877C28.4721 18.1499 28.2718 20.1837 27.5062 22.032C26.7406 23.8803 25.4441 25.46 23.7807 26.5715C22.1173 27.6829 20.1617 28.2762 18.1611 28.2762C15.4794 28.2729 12.9085 27.2062 11.0122 25.31C9.11597 23.4137 8.04924 20.8428 8.04603 18.1611Z" fill="#224282"/>
</svg>
