<svg width="72" height="66" viewBox="0 0 72 66" fill="none" xmlns="http://www.w3.org/2000/svg">
<path d="M19.4111 20.6875V12.375C19.4111 10.734 20.1176 9.16016 21.3752 7.99978C22.6328 6.8394 24.3384 6.1875 26.1169 6.1875H39.9126C41.0978 6.18767 42.2345 6.62212 43.0727 7.39535L62.8071 25.6046C63.6451 26.3781 64.116 27.4269 64.1162 28.5205V53.625C64.1162 55.266 63.4097 56.8398 62.1521 58.0002C60.8945 59.1606 59.1889 59.8125 57.4104 59.8125H26.1169C24.3384 59.8125 22.6328 59.1606 21.3752 58.0002C20.1176 56.8398 19.4111 55.266 19.4111 53.625V47.3125" stroke="#224282" stroke-width="5" stroke-linejoin="round"/>
<path d="M41.7637 7.21875V22.6875C41.7637 23.7815 42.2347 24.8307 43.073 25.6043C43.9114 26.3779 45.0485 26.8125 46.2342 26.8125H62.9986M34.5874 37.125H52.9399M30.5874 47.4375H52.9399" stroke="#224282" stroke-width="5" stroke-linecap="round" stroke-linejoin="round"/>
<path d="M32.8825 33.4412C32.8825 26.0205 26.8619 20 19.4412 20C12.0205 20 6 26.0205 6 33.4412C6 40.8619 12.0205 46.8825 19.4412 46.8825C26.8619 46.8825 32.8825 40.8619 32.8825 33.4412Z" stroke="#224282" stroke-width="4" stroke-miterlimit="10"/>
<path d="M19.0395 27.1442L19.4413 35.6815L19.8425 27.1442C19.8449 27.0896 19.8362 27.0351 19.8169 26.984C19.7976 26.9329 19.7681 26.8862 19.7302 26.8469C19.6922 26.8076 19.6467 26.7764 19.5963 26.7553C19.5459 26.7342 19.4917 26.7236 19.4371 26.7241C19.3831 26.7246 19.3298 26.736 19.2803 26.7576C19.2308 26.7792 19.1862 26.8105 19.1491 26.8497C19.112 26.8889 19.0831 26.9352 19.0643 26.9858C19.0455 27.0364 19.037 27.0902 19.0395 27.1442Z" stroke="#224282" stroke-width="4" stroke-linecap="round" stroke-linejoin="round"/>
<path d="M19.4411 41.2757C19.1642 41.2757 18.8935 41.1935 18.6633 41.0397C18.433 40.8858 18.2536 40.6672 18.1476 40.4113C18.0416 40.1555 18.0139 39.874 18.0679 39.6024C18.1219 39.3308 18.2553 39.0813 18.4511 38.8855C18.6469 38.6897 18.8964 38.5563 19.168 38.5023C19.4396 38.4483 19.7211 38.476 19.9769 38.582C20.2328 38.688 20.4515 38.8674 20.6053 39.0977C20.7592 39.3279 20.8413 39.5986 20.8413 39.8755C20.8413 40.2469 20.6938 40.603 20.4312 40.8656C20.1686 41.1281 19.8125 41.2757 19.4411 41.2757Z" fill="#224282"/>
</svg>
